<?xml version="1.0" encoding="utf-8"?>
<!-- Generator: Adobe Illustrator 26.0.1, SVG Export Plug-In . SVG Version: 6.00 Build 0)  -->
<svg version="1.1" id="Layer_1" xmlns="http://www.w3.org/2000/svg" xmlns:xlink="http://www.w3.org/1999/xlink" x="0px" y="0px"
	 viewBox="0 0 32 32" style="enable-background:new 0 0 32 32;" xml:space="preserve">
<style type="text/css">
	.st0{fill:#F89939;}
	.st1{fill:#FFFFFF;}
</style>
<circle class="st0" cx="16" cy="16" r="15.48"/>
<rect x="7.51" y="9.7" class="st1" width="17.97" height="1.56"/>
<rect x="13.19" y="13.94" class="st1" width="12.29" height="1.56"/>
<rect x="13.19" y="18.23" class="st1" width="12.29" height="1.56"/>
<rect x="7.51" y="22.37" class="st1" width="17.97" height="1.56"/>
<polygon class="st1" points="6.52,16.82 11.67,19.79 11.67,13.85 "/>
<circle class="st0" cx="-9.83" cy="-27.59" r="15.44"/>
<path class="st1" d="M-16.23-21.28h-1.17c-1.27,0-2.3-1.04-2.3-2.3v-4.84c0-1.27,1.04-2.3,2.3-2.3h1.17c1.27,0,2.3,1.04,2.3,2.3
	v4.84C-13.93-22.31-14.97-21.28-16.23-21.28z"/>
<circle class="st0" cx="-17.74" cy="-22.69" r="0.88"/>
<g>
	<g>
		<path class="st1" d="M-5.05-20.17h-4.58c-1.9,0-4.93-2.38-5.05-2.48c-0.07-0.06-0.11-0.14-0.11-0.23v-6.43
			c0-0.16,0.13-0.3,0.3-0.3h1.05c1.88,0,4.94-3.52,6.41-5.21c0.47-0.54,0.8-0.93,1-1.1c0.09-0.08,0.23-0.1,0.34-0.04
			c0.49,0.26,0.8,0.7,0.9,1.27c0.17,1.02-0.38,2.33-1.47,3.5c-0.56,0.6-0.71,1.1-0.62,1.31c0.09,0.21,0.47,0.24,0.7,0.24h7.67
			c0.8,0,1.78,0.68,1.78,1.47c0,0.79-0.97,1.43-1.78,1.43h-3.7C-2.09-26.54-2-26.27-2-25.99c0,0.71-0.52,1.3-1.19,1.41
			c0.15,0.23,0.24,0.5,0.24,0.79c0,0.62-0.4,1.15-0.95,1.35c0.18,0.24,0.28,0.54,0.28,0.85c0,0.64-0.43,1.2-1.05,1.37
			C-4.73-20.21-4.86-20.17-5.05-20.17z M-14.21-23.03c0.56,0.42,3.07,2.27,4.57,2.27h4.58c0.12,0,0.18-0.02,0.18-0.02
			c0.01,0,0.02-0.01,0.03-0.01c0.37-0.1,0.62-0.43,0.62-0.8c0-0.35-0.23-0.67-0.57-0.79c-0.14-0.05-0.22-0.19-0.2-0.33
			c0.02-0.14,0.15-0.25,0.29-0.25h0.31c0.46,0,0.83-0.37,0.83-0.83c0-0.35-0.23-0.67-0.57-0.79c-0.14-0.05-0.22-0.19-0.2-0.33
			c0.02-0.14,0.15-0.25,0.29-0.25h0.59c0.46,0,0.83-0.37,0.83-0.83c0-0.35-0.23-0.67-0.57-0.79c-0.14-0.05-0.22-0.19-0.2-0.33
			c0.02-0.14,0.15-0.25,0.29-0.25h4.54c0.5,0,1.18-0.42,1.18-0.83c0-0.42-0.69-0.87-1.18-0.87H-6.2c-0.81,0-1.12-0.32-1.24-0.59
			c-0.22-0.5,0.05-1.21,0.73-1.95c0.95-1.03,1.45-2.18,1.32-3c-0.05-0.31-0.19-0.55-0.41-0.73c-0.19,0.2-0.47,0.52-0.79,0.89
			c-2.28,2.62-4.87,5.42-6.86,5.42h-0.75L-14.21-23.03z"/>
	</g>
	<g>
		<path class="st1" d="M-2.56-26.76h-2.01c-0.16,0-0.3-0.13-0.3-0.3c0-0.16,0.13-0.3,0.3-0.3h2.01c0.16,0,0.3,0.13,0.3,0.3
			C-2.26-26.89-2.39-26.76-2.56-26.76z"/>
	</g>
	<g>
		<path class="st1" d="M-4.02-24.57h-1.1c-0.16,0-0.3-0.13-0.3-0.3c0-0.16,0.13-0.3,0.3-0.3h1.1c0.16,0,0.3,0.13,0.3,0.3
			C-3.73-24.7-3.86-24.57-4.02-24.57z"/>
	</g>
	<g>
		<path class="st1" d="M-4.69-22.37h-1.16c-0.16,0-0.3-0.13-0.3-0.3c0-0.16,0.13-0.3,0.3-0.3h1.16c0.16,0,0.3,0.13,0.3,0.3
			C-4.39-22.5-4.53-22.37-4.69-22.37z"/>
	</g>
	<g>
		<path class="st1" d="M-14.93-21.77h-0.24c-0.4,0-0.72-0.32-0.72-0.72v-7.12c0-0.4,0.32-0.72,0.72-0.72h0.24
			c0.4,0,0.72,0.32,0.72,0.72l0,7.12C-14.21-22.09-14.53-21.77-14.93-21.77z M-15.17-29.73c-0.07,0-0.13,0.06-0.13,0.13v7.12
			c0,0.07,0.06,0.13,0.13,0.13h0.24c0.07,0,0.13-0.06,0.13-0.13v-7.12c0-0.07-0.06-0.13-0.13-0.13H-15.17z"/>
	</g>
</g>
</svg>
