<svg width="434" height="557" viewBox="0 0 434 557" fill="none" xmlns="http://www.w3.org/2000/svg">
<path d="M389.173 556.533H41.9334C18.5733 556.533 0.277344 537.517 0.277344 513.236V42.396C0.277344 18.6987 18.5747 0.135986 41.9334 0.135986H312.667C314.693 0.135986 316.635 0.958906 318.042 2.41719L430.99 119.611C432.328 121.001 433.078 122.861 433.078 124.793V513.233C433.078 536.706 412.974 556.53 389.177 556.53L389.173 556.533ZM41.9334 15.0667C26.6987 15.0667 15.2094 26.8115 15.2094 42.3947V513.235C15.2094 529.136 26.9489 541.599 41.9334 541.599H389.173C404.605 541.599 418.143 528.343 418.143 513.235V127.808L309.487 15.0733L41.9334 15.0667Z" fill="#CE0E2D"/>
<path d="M425.6 132.773H347.964C324.604 132.773 306.308 113.757 306.308 89.476V7.596C306.308 3.47093 309.652 0.127197 313.777 0.127197C317.902 0.127197 321.246 3.46573 321.246 7.596L321.24 89.476C321.24 105.377 332.98 117.84 347.964 117.84H425.6C429.725 117.84 433.069 121.179 433.069 125.309C433.064 129.434 429.72 132.772 425.6 132.772L425.6 132.773Z" fill="#CE0E2D"/>
</svg>
