<?xml version="1.0" encoding="utf-8"?>
<!-- Generator: Adobe Illustrator 26.0.1, SVG Export Plug-In . SVG Version: 6.00 Build 0)  -->
<svg version="1.1" id="Layer_1" xmlns="http://www.w3.org/2000/svg" xmlns:xlink="http://www.w3.org/1999/xlink" x="0px" y="0px"
	 viewBox="0 0 32 32" style="enable-background:new 0 0 32 32;" xml:space="preserve">
<style type="text/css">
	.st0{fill:#F89939;}
	.st1{fill:#FFFFFF;}
</style>
<circle class="st0" cx="109.22" cy="-26.04" r="15.48"/>
<rect x="100.73" y="-32.34" class="st1" width="17.97" height="1.56"/>
<rect x="106.41" y="-28.1" class="st1" width="12.29" height="1.56"/>
<rect x="106.41" y="-23.81" class="st1" width="12.29" height="1.56"/>
<rect x="100.73" y="-19.67" class="st1" width="17.97" height="1.56"/>
<polygon class="st1" points="99.74,-25.23 104.89,-22.26 104.89,-28.2 "/>
<circle class="st0" cx="16" cy="15.71" r="15.44"/>
<path class="st1" d="M9.6,22.02H8.43c-1.27,0-2.3-1.04-2.3-2.3v-4.84c0-1.27,1.04-2.3,2.3-2.3H9.6c1.27,0,2.3,1.04,2.3,2.3v4.84
	C11.9,20.98,10.87,22.02,9.6,22.02z"/>
<circle class="st0" cx="8.09" cy="20.6" r="0.88"/>
<g>
	<g>
		<path class="st1" d="M20.78,23.12H16.2c-1.9,0-4.93-2.38-5.05-2.48c-0.07-0.06-0.11-0.14-0.11-0.23v-6.43c0-0.16,0.13-0.3,0.3-0.3
			h1.05c1.88,0,4.94-3.52,6.41-5.21c0.47-0.54,0.8-0.93,1-1.1c0.09-0.08,0.23-0.1,0.34-0.04c0.49,0.26,0.8,0.7,0.9,1.27
			c0.17,1.02-0.38,2.33-1.47,3.5c-0.56,0.6-0.71,1.1-0.62,1.31c0.09,0.21,0.47,0.24,0.7,0.24h7.67c0.8,0,1.78,0.68,1.78,1.47
			c0,0.79-0.97,1.43-1.78,1.43h-3.7c0.15,0.22,0.23,0.49,0.23,0.77c0,0.71-0.52,1.3-1.19,1.41c0.15,0.23,0.24,0.5,0.24,0.79
			c0,0.62-0.4,1.15-0.95,1.35c0.18,0.24,0.28,0.54,0.28,0.85c0,0.64-0.43,1.2-1.05,1.37C21.1,23.08,20.97,23.12,20.78,23.12z
			 M11.62,20.26c0.56,0.42,3.07,2.27,4.57,2.27h4.58c0.12,0,0.18-0.02,0.18-0.02c0.01,0,0.02-0.01,0.03-0.01
			c0.37-0.1,0.62-0.43,0.62-0.8c0-0.35-0.23-0.67-0.57-0.79c-0.14-0.05-0.22-0.19-0.2-0.33c0.02-0.14,0.15-0.25,0.29-0.25h0.31
			c0.46,0,0.83-0.37,0.83-0.83c0-0.35-0.23-0.67-0.57-0.79c-0.14-0.05-0.22-0.19-0.2-0.33c0.02-0.14,0.15-0.25,0.29-0.25h0.59
			c0.46,0,0.83-0.37,0.83-0.83c0-0.35-0.23-0.67-0.57-0.79c-0.14-0.05-0.22-0.19-0.2-0.33c0.02-0.14,0.15-0.25,0.29-0.25h4.54
			c0.5,0,1.18-0.42,1.18-0.83c0-0.42-0.69-0.87-1.18-0.87h-7.67c-0.81,0-1.12-0.32-1.24-0.59c-0.22-0.5,0.05-1.21,0.73-1.95
			c0.95-1.03,1.45-2.18,1.32-3c-0.05-0.31-0.19-0.55-0.41-0.73c-0.19,0.2-0.47,0.52-0.79,0.89c-2.28,2.62-4.87,5.42-6.86,5.42h-0.75
			L11.62,20.26z"/>
	</g>
	<g>
		<path class="st1" d="M23.28,16.53h-2.01c-0.16,0-0.3-0.13-0.3-0.3c0-0.16,0.13-0.3,0.3-0.3h2.01c0.16,0,0.3,0.13,0.3,0.3
			C23.57,16.4,23.44,16.53,23.28,16.53z"/>
	</g>
	<g>
		<path class="st1" d="M21.81,18.73h-1.1c-0.16,0-0.3-0.13-0.3-0.3c0-0.16,0.13-0.3,0.3-0.3h1.1c0.16,0,0.3,0.13,0.3,0.3
			C22.11,18.6,21.97,18.73,21.81,18.73z"/>
	</g>
	<g>
		<path class="st1" d="M21.14,20.92h-1.16c-0.16,0-0.3-0.13-0.3-0.3c0-0.16,0.13-0.3,0.3-0.3h1.16c0.16,0,0.3,0.13,0.3,0.3
			C21.44,20.79,21.31,20.92,21.14,20.92z"/>
	</g>
	<g>
		<path class="st1" d="M10.9,21.53h-0.24c-0.4,0-0.72-0.32-0.72-0.72v-7.12c0-0.4,0.32-0.72,0.72-0.72h0.24
			c0.4,0,0.72,0.32,0.72,0.72l0,7.12C11.62,21.2,11.3,21.53,10.9,21.53z M10.66,13.56c-0.07,0-0.13,0.06-0.13,0.13v7.12
			c0,0.07,0.06,0.13,0.13,0.13h0.24c0.07,0,0.13-0.06,0.13-0.13v-7.12c0-0.07-0.06-0.13-0.13-0.13H10.66z"/>
	</g>
</g>
</svg>
