<svg width="491" height="683" viewBox="0 0 491 683" fill="none" xmlns="http://www.w3.org/2000/svg">
<path d="M245.667 290.16C325.651 290.16 390.733 225.108 390.733 145.12C390.733 65.136 325.635 0.0799561 245.667 0.0799561C165.699 0.0799561 100.653 65.132 100.653 145.12C100.653 225.104 165.705 290.16 245.667 290.16ZM245.667 23.4133C312.771 23.4133 367.396 78.012 367.396 145.121C367.396 212.225 312.797 266.829 245.667 266.829C178.584 266.829 123.984 212.231 123.984 145.121C123.984 78.012 178.563 23.4133 245.667 23.4133Z" fill="#CE0E2D"/>
<path d="M245.667 314.333C110.547 314.333 0.613281 424.255 0.613281 559.387V670.917C0.613281 677.355 5.84248 682.584 12.2799 682.584H479.067C485.504 682.584 490.733 677.355 490.733 670.917V559.387C490.712 424.267 380.791 314.333 245.667 314.333V314.333ZM467.387 659.24H23.9599V559.376C23.9599 437.131 123.429 337.656 245.68 337.656C367.945 337.656 467.413 437.125 467.413 559.376V659.24H467.387Z" fill="#CE0E2D"/>
</svg>
