<?xml version="1.0" encoding="utf-8"?>
<!-- Generator: Adobe Illustrator 28.0.0, SVG Export Plug-In . SVG Version: 6.00 Build 0)  -->
<svg version="1.1" id="Layer_1" xmlns="http://www.w3.org/2000/svg" xmlns:xlink="http://www.w3.org/1999/xlink" x="0px" y="0px"
	 viewBox="0 0 75 75" style="enable-background:new 0 0 75 75;" xml:space="preserve">
<style type="text/css">
	.st0{fill:#231F20;}
</style>
<g>
	<path class="st0" d="M21,15.5h15.7c0,0,0,0,0,0c0.9,0,1.6-0.6,1.6-1.3v-2.6c0,0,0,0,0,0c0-0.7-0.7-1.3-1.6-1.3H21c0,0,0,0,0,0
		c-0.9,0-1.6,0.6-1.6,1.3v2.6c0,0,0,0,0,0C19.4,15,20.2,15.5,21,15.5z"/>
	<path class="st0" d="M36.8,25.9c0.9,0,1.6-0.6,1.6-1.3V22c0,0,0,0,0,0c0-0.7-0.7-1.3-1.6-1.3H21c0,0,0,0,0,0
		c-0.9,0-1.6,0.6-1.6,1.3v2.6c0,0,0,0,0,0c0,0.7,0.7,1.3,1.6,1.3H36.8C36.8,25.9,36.8,25.9,36.8,25.9z"/>
	<path class="st0" d="M63.4,21.5L46.8,4.9c-1.2-1.2-2.7-1.8-4.4-1.8H15.8c-2.3,0-4.2,1.9-4.2,4.2v60.4c0,2.3,1.9,4.2,4.2,4.2h45.2
		c2.3,0,4.2-1.9,4.2-4.2V25.5C65.1,24,64.5,22.6,63.4,21.5z M46,9.6l12.1,12.1H46V9.6z M61.6,65.6C61.6,65.6,61.6,65.6,61.6,65.6
		c0,1.6-1.3,2.9-2.9,2.9H18c0,0,0,0,0,0c-1.6,0-2.9-1.3-2.9-2.9V9.4c0,0,0,0,0,0c0-1.6,1.3-2.9,2.9-2.9h24.2V23
		c0,1.6,1.3,2.9,2.9,2.9h16.5V65.6z"/>
	<path class="st0" d="M42.4,46.9l-6.8-2c-0.8-0.3-1.4-1.1-1.3-1.9c-0.1-1,0.7-1.9,1.8-2h4.3c0.7,0,1.4,0.2,1.9,0.6
		c0.5,0.3,1.1,0.3,1.5-0.1l1.8-1.7c0,0,0.1-0.1,0.1-0.1c0.4-0.5,0.3-1.3-0.2-1.7c-1.4-1-3-1.6-4.8-1.7v-3.7c0,0,0,0,0,0
		c0-0.7-0.5-1.2-1.2-1.2h-2.4c0,0,0,0,0,0c-0.7,0-1.2,0.5-1.2,1.2v3.7c-3.6,0.2-6.5,3.2-6.5,6.8c0,3,1.9,5.7,4.8,6.6l6.8,2
		c0.8,0.3,1.4,1.1,1.3,1.9c0.1,1-0.7,1.9-1.8,2h-4.3c-0.7,0-1.4-0.2-1.9-0.6c-0.5-0.3-1.1-0.3-1.5,0.1l-1.8,1.7c0,0-0.1,0.1-0.1,0.1
		c-0.4,0.5-0.3,1.3,0.2,1.7c1.4,1,3,1.6,4.8,1.7V64c0,0.7,0.5,1.2,1.2,1.2h2.4c0,0,0,0,0,0c0.7,0,1.2-0.5,1.2-1.2v-3.7
		c3.6-0.2,6.5-3.2,6.5-6.8C47.2,50.5,45.3,47.8,42.4,46.9z"/>
</g>
</svg>
