<?xml version="1.0" encoding="utf-8"?>
<!-- Generator: Adobe Illustrator 28.3.0, SVG Export Plug-In . SVG Version: 6.00 Build 0)  -->
<svg version="1.1" id="Layer_1" xmlns="http://www.w3.org/2000/svg" xmlns:xlink="http://www.w3.org/1999/xlink" x="0px" y="0px"
	 viewBox="0 0 60 60" style="enable-background:new 0 0 60 60;" xml:space="preserve">
<style type="text/css">
	.st0{fill:none;stroke:#FFFFFF;stroke-miterlimit:10;}
	.st1{fill:none;stroke:#FFFFFF;stroke-width:0.75;stroke-miterlimit:10;}
	.st2{fill:#DAE5EB;}
	.st3{fill:#FFFFFF;}
	.st4{fill:none;stroke:#FFFFFF;stroke-width:0.751;stroke-miterlimit:10;}
</style>
<path class="st2" d="M31.41,54c-0.94,0-1.87,0-2.81,0c-0.12-0.03-0.24-0.07-0.36-0.08c-3.35-0.23-6.53-1.09-9.46-2.73
	C10.9,46.78,6.61,40.03,6.05,31c-0.24-3.88,0.49-7.64,2.23-11.13C12.53,11.33,19.47,6.67,29,6.05c4.33-0.28,8.46,0.68,12.26,2.78
	c6.77,3.72,10.9,9.4,12.36,17c0.18,0.91,0.25,1.85,0.38,2.77c0,0.94,0,1.87,0,2.81c-0.03,0.13-0.07,0.27-0.08,0.4
	c-0.23,3.36-1.13,6.55-2.76,9.49c-3.75,6.75-9.42,10.88-17.02,12.32C33.24,53.8,32.32,53.88,31.41,54z M29.99,47.72
	c4.22-0.05,7.98-1.39,11.26-4.05c0.97-0.78,1.44-1.78,1.39-3.02c-0.16-4.38-3.66-7.7-8.16-7.73c-2.98-0.02-5.96-0.01-8.95,0
	c-4.31,0.02-7.6,2.92-8.15,7.19c-0.17,1.35,0.14,2.55,1.23,3.45C21.92,46.29,25.71,47.67,29.99,47.72z M22.07,21.13
	c0.02,4.38,3.58,7.93,7.94,7.93c4.37,0,7.99-3.64,7.94-7.97c-0.06-4.4-3.6-7.92-7.96-7.89C25.59,13.22,22.04,16.78,22.07,21.13z"/>
</svg>
