<?xml version="1.0" encoding="utf-8"?>
<!-- Generator: Adobe Illustrator 28.3.0, SVG Export Plug-In . SVG Version: 6.00 Build 0)  -->
<svg version="1.1" id="Layer_1" xmlns="http://www.w3.org/2000/svg" xmlns:xlink="http://www.w3.org/1999/xlink" x="0px" y="0px"
	 viewBox="0 0 60 60" style="enable-background:new 0 0 60 60;" xml:space="preserve">
<style type="text/css">
	.st0{fill:none;stroke:#FFFFFF;stroke-width:0.2;stroke-miterlimit:10;}
	.st1{fill:#FFFFFF;}
</style>
<g>
	<path class="st0" d="M58.5,46.36c-4.61,0-9.23,0-13.87,0c0-4.92,0-9.79,0-14.74c0.21-0.01,0.42-0.03,0.63-0.03
		c4.19,0,8.38,0,12.58,0c0.22,0,0.44-0.02,0.66-0.03C58.5,36.49,58.5,41.42,58.5,46.36z"/>
	<path class="st0" d="M58.5,49.48c-0.29,0.53-0.73,0.7-1.33,0.69c-3.75-0.02-7.49-0.01-11.24-0.01c-1.03,0-1.33-0.3-1.33-1.32
		c0-0.46,0-0.92,0-1.48c4.65,0,9.28,0,13.9,0C58.5,48.07,58.5,48.77,58.5,49.48z M51.49,49.18c0.56,0,1.11,0,1.67,0
		c0.3,0,0.62-0.07,0.54-0.44c-0.04-0.18-0.32-0.42-0.5-0.42c-1.11-0.04-2.22-0.04-3.33,0c-0.17,0.01-0.45,0.26-0.49,0.44
		c-0.07,0.33,0.21,0.42,0.5,0.42C50.41,49.18,50.95,49.18,51.49,49.18z"/>
	<path class="st0" d="M57.21,27.89c-2.65,0.02-5.3,0.01-7.95,0.01c-1.17,0-2.33-0.01-3.5,0c-0.66,0-1.08,0.28-1.13,0.83
		c-0.05,0.64-0.01,1.28-0.01,1.97h0.55c4.3,0,8.6,0,12.89,0c0.15,0,0.29-0.02,0.44-0.03v-2.12C58.22,28.04,57.78,27.88,57.21,27.89z
		 M53.93,29.49c0,0.17-0.14,0.3-0.3,0.3h-4.3c-0.17,0-0.3-0.14-0.3-0.3v-0.43c0-0.17,0.14-0.3,0.3-0.3h4.3c0.17,0,0.3,0.14,0.3,0.3
		V29.49z M55.05,29.94c-0.37,0-0.67-0.3-0.67-0.67c0-0.37,0.3-0.67,0.67-0.67c0.37,0,0.67,0.3,0.67,0.67
		C55.72,29.64,55.42,29.94,55.05,29.94z"/>
	<path class="st0" d="M31.52,34.77c0-2.23,0-4.4,0-6.57c0-0.65-0.12-1.25-0.54-1.77c-0.54-0.66-1.25-0.86-2.08-0.86
		c-4.82,0.01-9.65,0-14.47,0c-0.22,0-0.44,0-0.69,0c-0.01-0.24-0.03-0.41-0.03-0.59c0-4.42,0-8.83,0-13.25
		c0-1.4,0.52-1.91,1.91-1.91c11.24,0,22.48,0,33.73,0c1.39,0,1.9,0.52,1.9,1.92c0,4.86,0,9.72,0,14.58c0,0.18,0,0.37,0,0.61
		c-0.23,0.01-0.42,0.03-0.62,0.03c-1.54,0-3.08,0-4.62,0c-1.6,0-2.24,0.65-2.24,2.27c0,1.63,0,3.26,0,4.9c0,0.2,0,0.4,0,0.63
		C39.67,34.77,35.63,34.77,31.52,34.77z"/>
	<path class="st0" d="M2.87,46.53c0-0.23,0-0.43,0-0.63c0-5.86,0-11.73,0-17.59c0-1.33,0.45-1.78,1.75-1.78c8.07,0,16.14,0,24.21,0
		c1.18,0,1.64,0.44,1.64,1.59c0.01,5.99,0,11.98,0,17.98c0,0.13-0.02,0.26-0.03,0.43C21.28,46.53,12.13,46.53,2.87,46.53z"/>
	<path class="st0" d="M1.5,47.48c10.18,0,20.28,0,30.47,0c0,0.29,0,0.57,0,0.84c0,1.35-0.47,1.81-1.8,1.81c-8.92,0-17.85,0-26.77,0
		c-1.46,0-1.89-0.43-1.89-1.88C1.5,48.01,1.5,47.78,1.5,47.48z"/>
	<path class="st0" d="M43.67,35.8c0,1.36,0,2.67,0,4c-4.07,0-8.11,0-12.18,0c0-1.34,0-2.64,0-4C35.55,35.8,39.59,35.8,43.67,35.8z"
		/>
	<path class="st0" d="M36.22,43.23c0.55,0,1.01,0,1.47,0c0.29,0,0.59,0,0.58,0.41c-0.01,0.4-0.27,0.48-0.61,0.48
		c-0.83,0-1.67,0-2.5,0c-1.2,0-2.41,0-3.65,0c0-1.12,0-2.21,0-3.35c1.55,0,3.11,0,4.72,0C36.22,41.57,36.22,42.36,36.22,43.23z"/>
</g>
</svg>
