<?xml version="1.0" encoding="utf-8"?>
<!-- Generator: Adobe Illustrator 28.3.0, SVG Export Plug-In . SVG Version: 6.00 Build 0)  -->
<svg version="1.1" id="Layer_1" xmlns="http://www.w3.org/2000/svg" xmlns:xlink="http://www.w3.org/1999/xlink" x="0px" y="0px"
	 viewBox="0 0 60 60" style="enable-background:new 0 0 60 60;" xml:space="preserve">
<style type="text/css">
	.st0{fill:none;stroke:#FFFFFF;stroke-miterlimit:10;}
	.st1{fill:none;stroke:#FFFFFF;stroke-width:0.75;stroke-miterlimit:10;}
	.st2{fill:#DAE5EB;}
	.st3{fill:#FFFFFF;}
	.st4{fill:none;stroke:#FFFFFF;stroke-width:0.751;stroke-miterlimit:10;}
</style>
<g>
	<path class="st2" d="M16.85,31.5c0-0.11,0-0.21,0-0.31c0.02-0.28,0.02-0.49-0.35-0.63c-0.56-0.2-0.52-0.76-0.53-1.26
		c0-0.43,0.11-0.79,0.52-1c0.1-0.05,0.22-0.08,0.36-0.14c0-0.22,0.01-0.45-0.01-0.68c0-0.05-0.08-0.13-0.14-0.15
		c-0.5-0.18-0.71-0.46-0.73-1c0-0.08,0-0.16,0-0.24c-0.02-0.76,0.16-1.02,0.86-1.26c0-0.26,0-0.52,0-0.77
		c-0.18-0.09-0.35-0.18-0.53-0.28c-0.45-0.25-0.48-1.77-0.01-2.04c0.08-0.04,0.15-0.13,0.23-0.14c0.32-0.04,0.32-0.25,0.32-0.51
		c-0.01-0.63-0.02-1.27,0.03-1.9c0.05-0.73,0.39-1.36,0.93-1.85c1.58-1.44,3.16-2.87,4.74-4.29c0.62-0.56,1.35-0.79,2.17-0.79
		c4.03,0,8.06,0,12.09,0c0.12,0,0.23,0,0.38,0c0-0.14,0-0.24,0-0.35c0-1.46,0-2.92,0-4.38c0-1.17,0.86-2.04,1.99-2.04
		c1.11,0,1.97,0.88,1.98,2.03c0,1.56,0,3.12,0,4.68c0,0.19,0.06,0.28,0.23,0.37c1.13,0.56,1.74,1.48,1.75,2.76
		c0.01,1.94,0,3.88,0,5.83c0,0.11,0,0.22,0,0.33c0.15,0.06,0.29,0.11,0.43,0.17c0.64,0.24,0.66,1.98,0.03,2.23
		c-0.14,0.06-0.28,0.11-0.45,0.17c0,0.24,0,0.5,0,0.77c0.14,0.06,0.29,0.12,0.44,0.18c0.61,0.24,0.64,1.96,0.01,2.22
		c-0.14,0.06-0.28,0.11-0.45,0.18c0,0.24,0,0.5,0,0.73c0.21,0.12,0.44,0.2,0.61,0.35c0.42,0.39,0.42,1.55,0.01,1.94
		c-0.16,0.15-0.38,0.23-0.61,0.36c0,0.2,0,0.46,0,0.69c0.21,0.12,0.44,0.2,0.61,0.35c0.41,0.38,0.42,1.53,0.02,1.92
		c-0.16,0.16-0.39,0.24-0.64,0.39c0,0.04,0,0.16,0,0.27c0,5.55,0,11.09,0,16.64c0,2-1.47,3.48-3.47,3.48c-6.44,0-12.89,0-19.33,0
		c-2.02,0-3.49-1.47-3.49-3.49c0-5.55,0-11.11,0-16.66c0-0.21-0.02-0.34-0.27-0.41c-0.17-0.05-0.35-0.21-0.45-0.36
		C15.65,32.86,16.01,31.8,16.85,31.5z M20.09,35.2c0,4.95,0,9.89,0,14.84c0,0.22,0,0.44,0.03,0.65c0.22,1.21,1.19,2.02,2.44,2.02
		c2.5,0.01,4.99,0,7.49,0c2.42,0,4.85,0,7.27,0c0.47,0,0.92-0.07,1.33-0.32c0.88-0.52,1.25-1.31,1.25-2.32c0-7.65,0-15.3,0-22.96
		c0-2.27,0.01-4.54,0-6.81c-0.01-1.86-1.3-3.15-3.16-3.15c-4.5,0-9,0-13.51,0c-0.31,0-0.64,0.03-0.94,0.12
		c-1.35,0.37-2.2,1.54-2.2,2.98C20.09,25.25,20.09,30.23,20.09,35.2z M32.22,13.66c-2.35,0-4.7,0-7.05,0
		c-0.38,0-0.54,0.09-0.53,0.31c0,0.22,0.16,0.3,0.54,0.3c4.62,0,9.24,0,13.86,0c1.35,0,2.18,0.85,2.19,2.2c0,0.59,0,1.18,0,1.77
		c0,0.17,0.02,0.33,0.22,0.4c0.22,0.08,0.4-0.08,0.4-0.37c0-0.62,0-1.23,0-1.85c0-1.63-1.13-2.76-2.75-2.76
		C36.79,13.66,34.5,13.66,32.22,13.66z M40.47,9.87c0-0.66,0.02-1.32-0.01-1.98c-0.02-0.34-0.1-0.68-0.23-1
		C40.02,6.36,39.54,6.15,39,6.1c-0.18-0.02-0.3,0.08-0.32,0.26c-0.03,0.18,0.06,0.3,0.24,0.34c0.05,0.01,0.11,0.03,0.16,0.03
		c0.37,0.05,0.61,0.27,0.69,0.63c0.05,0.2,0.09,0.41,0.09,0.62c0.01,1.17,0,2.34,0,3.51c0,0.2-0.03,0.41,0.02,0.59
		c0.03,0.11,0.18,0.25,0.28,0.25c0.1,0,0.22-0.14,0.3-0.24c0.04-0.04,0.01-0.14,0.01-0.21C40.47,11.22,40.47,10.55,40.47,9.87z"/>
	<path class="st2" d="M39.28,35.2c0,4.97,0,9.93,0,14.9c0,1.27-0.74,2.01-2.01,2.01c-4.85,0-9.69,0-14.54,0
		c-1.27,0-2.02-0.74-2.02-2.01c0-9.91,0-19.82,0-29.74c0-1.55,1.01-2.56,2.55-2.56c4.48,0,8.97,0,13.45,0c1.57,0,2.57,1,2.57,2.57
		C39.28,25.31,39.28,30.26,39.28,35.2z M22.6,27.41c0,2.13,0,4.27,0,6.4c0,0.81,0.57,1.4,1.38,1.4c4.08,0.01,8.15,0.01,12.23,0
		c0.82,0,1.39-0.58,1.39-1.39c0-4.25,0-8.5,0-12.74c0-0.19-0.03-0.4-0.11-0.58c-0.25-0.58-0.73-0.82-1.35-0.82
		c-4.02,0-8.04,0-12.06,0c-0.92,0-1.47,0.55-1.48,1.47C22.6,23.24,22.6,25.33,22.6,27.41z M24.43,42.85c0.3,0,0.6,0,0.9,0
		c0.57-0.01,0.93-0.39,0.93-0.97c0-0.58-0.36-0.97-0.93-0.98c-0.6-0.01-1.2-0.01-1.8,0c-0.56,0.01-0.93,0.38-0.93,0.95
		c-0.01,0.6,0.34,0.98,0.91,1C23.81,42.86,24.12,42.85,24.43,42.85z M30.15,42.85c0.3,0,0.6,0.01,0.9,0
		c0.58-0.01,0.93-0.4,0.93-1.01c-0.01-0.56-0.38-0.94-0.94-0.94c-0.6-0.01-1.2-0.01-1.8,0c-0.56,0.01-0.92,0.39-0.93,0.95
		c-0.01,0.59,0.35,0.98,0.92,0.99C29.53,42.86,29.84,42.85,30.15,42.85z M35.84,49.89c0.32,0,0.64,0.01,0.95,0
		c0.49-0.01,0.86-0.37,0.89-0.85c0.04-0.57-0.25-1.03-0.77-1.07c-0.7-0.04-1.41-0.04-2.12,0c-0.53,0.03-0.82,0.47-0.78,1.05
		c0.03,0.51,0.39,0.86,0.9,0.87C35.23,49.89,35.54,49.89,35.84,49.89z M35.87,44.43c-0.32,0-0.64-0.01-0.95,0
		c-0.5,0.01-0.86,0.35-0.89,0.85c-0.05,0.58,0.24,1.04,0.76,1.07c0.71,0.05,1.43,0.05,2.15,0c0.52-0.03,0.81-0.5,0.76-1.07
		c-0.04-0.49-0.41-0.84-0.9-0.85C36.48,44.42,36.18,44.43,35.87,44.43z M35.82,42.85c0.32,0,0.64,0.01,0.95,0
		c0.55-0.02,0.91-0.41,0.91-0.97c0-0.57-0.36-0.97-0.91-0.97c-0.62-0.01-1.23-0.01-1.85,0c-0.55,0.01-0.91,0.4-0.91,0.97
		c0,0.57,0.35,0.96,0.91,0.97C35.23,42.86,35.52,42.85,35.82,42.85z M24.44,44.43c-0.32,0-0.63-0.01-0.95,0
		c-0.48,0.01-0.85,0.36-0.89,0.82c-0.05,0.61,0.23,1.06,0.76,1.1c0.71,0.05,1.43,0.05,2.15,0c0.52-0.03,0.8-0.49,0.76-1.1
		c-0.04-0.46-0.41-0.81-0.89-0.82C25.06,44.42,24.75,44.43,24.44,44.43z M30.15,44.43C30.15,44.43,30.15,44.43,30.15,44.43
		c-0.33,0-0.65-0.01-0.98,0c-0.48,0.01-0.83,0.37-0.86,0.85c-0.04,0.57,0.23,1.03,0.73,1.06c0.72,0.05,1.45,0.05,2.17,0
		c0.52-0.03,0.79-0.48,0.76-1.07c-0.03-0.48-0.4-0.83-0.9-0.84C30.77,44.42,30.46,44.43,30.15,44.43z M24.43,49.89
		c0.32,0,0.63,0.01,0.95,0c0.48-0.01,0.84-0.37,0.88-0.83c0.04-0.59-0.24-1.05-0.75-1.08c-0.72-0.05-1.45-0.05-2.17,0
		c-0.52,0.03-0.78,0.48-0.74,1.08c0.03,0.47,0.4,0.82,0.88,0.83C23.8,49.89,24.12,49.89,24.43,49.89z M30.13,49.89
		c0.32,0,0.63,0.01,0.95,0c0.49-0.01,0.86-0.37,0.89-0.85c0.03-0.6-0.26-1.05-0.79-1.08c-0.7-0.04-1.4-0.04-2.09,0
		c-0.53,0.03-0.81,0.47-0.78,1.05c0.03,0.51,0.39,0.86,0.9,0.87C29.51,49.89,29.82,49.89,30.13,49.89z M35.84,39.33
		c0.31,0,0.62,0,0.92,0c0.53-0.01,0.9-0.38,0.92-0.9c0.02-0.58-0.31-1.01-0.85-1.03c-0.66-0.03-1.32-0.03-1.99,0
		c-0.54,0.02-0.86,0.44-0.84,1.03c0.02,0.52,0.38,0.89,0.9,0.9C35.23,39.33,35.53,39.32,35.84,39.33z M30.12,39.32
		c0.32,0,0.63,0.01,0.95,0c0.52-0.01,0.88-0.38,0.9-0.9c0.02-0.6-0.29-1.01-0.84-1.03c-0.67-0.03-1.34-0.03-2.01,0
		c-0.53,0.02-0.84,0.45-0.82,1.02c0.02,0.53,0.38,0.89,0.89,0.9C29.51,39.33,29.82,39.32,30.12,39.32z M24.42,39.32
		c0.32,0,0.63,0.01,0.95,0c0.51-0.01,0.87-0.37,0.89-0.87c0.03-0.6-0.28-1.03-0.81-1.05c-0.68-0.03-1.36-0.03-2.04,0
		c-0.53,0.02-0.84,0.45-0.81,1.05c0.02,0.5,0.39,0.86,0.89,0.87C23.8,39.33,24.11,39.32,24.42,39.32z"/>
	<path class="st2" d="M31.18,30.57c-0.93-1.34-1.86-2.63-2.17-4.24c-0.17-0.92,0.24-1.85,1.04-2.34c0.84-0.52,1.71-0.51,2.54,0.03
		c0.8,0.52,1.17,1.46,0.98,2.39c-0.06,0.26-0.13,0.53-0.23,0.78C32.83,28.43,32.05,29.49,31.18,30.57z M31.29,26.68
		c0.41,0,0.74-0.32,0.75-0.73c0.01-0.42-0.32-0.76-0.75-0.76c-0.41,0-0.74,0.33-0.74,0.74C30.56,26.35,30.88,26.68,31.29,26.68z"/>
	<path class="st2" d="M31.82,20.85c0,0.42,0,0.81,0,1.22c-2.71,0-5.4,0-8.1,0c0-0.41,0-0.8,0-1.22
		C26.41,20.85,29.11,20.85,31.82,20.85z"/>
	<path class="st2" d="M27.91,24.32c-1.4,0-2.78,0-4.19,0c0-0.4,0-0.8,0-1.22c1.39,0,2.78,0,4.19,0
		C27.91,23.5,27.91,23.91,27.91,24.32z"/>
	<path class="st2" d="M35.94,21.47c0,0.11,0.04,0.24-0.01,0.32c-0.06,0.12-0.18,0.28-0.29,0.28c-0.1,0.01-0.29-0.14-0.31-0.25
		c-0.05-0.23-0.05-0.49,0-0.72c0.02-0.1,0.2-0.24,0.32-0.24c0.09,0,0.22,0.15,0.28,0.26C35.98,21.22,35.94,21.36,35.94,21.47
		C35.94,21.47,35.94,21.47,35.94,21.47z"/>
	<path class="st2" d="M35.94,25.25c0,0.11,0.04,0.24-0.01,0.32c-0.07,0.12-0.19,0.26-0.31,0.27c-0.09,0.01-0.27-0.14-0.29-0.24
		c-0.04-0.23-0.03-0.49-0.01-0.73c0.01-0.17,0.15-0.3,0.32-0.25c0.12,0.04,0.23,0.17,0.29,0.29C35.98,24.99,35.94,25.13,35.94,25.25
		C35.94,25.25,35.94,25.25,35.94,25.25z"/>
	<path class="st2" d="M35.32,28.98c0-0.12-0.04-0.26,0.01-0.35c0.07-0.11,0.2-0.26,0.31-0.26c0.1,0,0.27,0.15,0.29,0.27
		c0.05,0.21,0.02,0.43,0,0.65c-0.01,0.2-0.13,0.33-0.34,0.31c-0.2-0.01-0.3-0.15-0.3-0.35c0-0.09,0-0.18,0-0.27
		C35.31,28.98,35.31,28.98,35.32,28.98z"/>
	<path class="st2" d="M35.94,27.1c0,0.11,0.04,0.24-0.01,0.32c-0.06,0.12-0.17,0.26-0.29,0.29c-0.18,0.05-0.31-0.09-0.33-0.27
		c-0.02-0.22-0.04-0.46,0.01-0.67c0.03-0.11,0.18-0.25,0.3-0.28c0.18-0.04,0.3,0.1,0.32,0.29C35.95,26.89,35.94,27,35.94,27.1z"/>
	<path class="st2" d="M35.94,23.36c0,0.11,0.04,0.24-0.01,0.32c-0.07,0.12-0.2,0.27-0.3,0.27c-0.1,0-0.28-0.15-0.3-0.26
		c-0.05-0.21-0.03-0.45-0.01-0.67c0.01-0.19,0.13-0.3,0.32-0.3c0.19,0.01,0.29,0.13,0.31,0.32C35.95,23.15,35.95,23.25,35.94,23.36
		C35.95,23.36,35.94,23.36,35.94,23.36z"/>
	<path class="st2" d="M35.52,30.4c-0.01,0.26-0.44,0.82-0.62,0.84c-0.1,0.01-0.25-0.02-0.31-0.1c-0.06-0.08-0.09-0.26-0.04-0.34
		c0.12-0.21,0.28-0.4,0.45-0.57c0.07-0.07,0.24-0.08,0.34-0.05C35.43,30.22,35.49,30.36,35.52,30.4z"/>
	<path class="st2" d="M33.21,32.04c-0.2-0.01-0.35-0.08-0.37-0.29c-0.03-0.2,0.08-0.32,0.29-0.35c0.18-0.03,0.35-0.07,0.53-0.11
		c0.2-0.04,0.35,0.02,0.4,0.22c0.05,0.2-0.04,0.34-0.24,0.39C33.61,31.95,33.41,31.99,33.21,32.04z"/>
	<path class="st2" d="M27.93,31.41c0.08,0,0.16-0.01,0.24,0c0.18,0.03,0.3,0.14,0.26,0.31c-0.03,0.11-0.15,0.26-0.25,0.29
		c-0.21,0.06-0.45,0.08-0.67,0.05c-0.12-0.02-0.27-0.16-0.3-0.27c-0.02-0.09,0.11-0.26,0.21-0.31c0.15-0.07,0.33-0.06,0.5-0.09
		C27.93,31.4,27.93,31.41,27.93,31.41z"/>
	<path class="st2" d="M25,34.18c0.02-0.11,0.03-0.27,0.07-0.43c0.05-0.18,0.17-0.29,0.36-0.25c0.2,0.04,0.28,0.18,0.25,0.38
		c-0.02,0.16-0.05,0.32-0.06,0.48c-0.01,0.22-0.08,0.38-0.33,0.37c-0.24-0.01-0.31-0.18-0.3-0.4C25,34.31,25,34.27,25,34.18z"/>
	<path class="st2" d="M25.95,33.01c-0.25-0.01-0.43-0.26-0.29-0.44c0.17-0.22,0.39-0.42,0.62-0.59c0.06-0.05,0.25,0.01,0.33,0.08
		c0.06,0.06,0.1,0.25,0.06,0.31c-0.18,0.22-0.4,0.41-0.61,0.61C26.02,33.01,25.97,33.01,25.95,33.01z"/>
	<path class="st2" d="M29.7,32.03c-0.12,0-0.24,0.01-0.35,0c-0.18-0.02-0.3-0.14-0.26-0.31c0.03-0.11,0.15-0.27,0.25-0.29
		c0.24-0.04,0.49-0.04,0.72,0c0.1,0.02,0.26,0.19,0.25,0.28c-0.01,0.11-0.15,0.24-0.26,0.3C29.96,32.07,29.82,32.03,29.7,32.03z"/>
	<path class="st2" d="M31.58,31.41c0.11,0,0.22-0.01,0.32,0c0.18,0.01,0.28,0.12,0.29,0.3c0.01,0.18-0.09,0.3-0.26,0.31
		c-0.23,0.02-0.47,0.04-0.7-0.01c-0.11-0.02-0.26-0.19-0.26-0.29c0-0.1,0.15-0.24,0.27-0.3C31.33,31.37,31.47,31.41,31.58,31.41
		C31.58,31.41,31.58,31.41,31.58,31.41z"/>
</g>
</svg>
