<?xml version="1.0" encoding="utf-8"?>
<!-- Generator: Adobe Illustrator 28.3.0, SVG Export Plug-In . SVG Version: 6.00 Build 0)  -->
<svg version="1.1" id="Layer_1" xmlns="http://www.w3.org/2000/svg" xmlns:xlink="http://www.w3.org/1999/xlink" x="0px" y="0px"
	 viewBox="0 0 60 60" style="enable-background:new 0 0 60 60;" xml:space="preserve">
<style type="text/css">
	.st0{fill:none;stroke:#FFFFFF;stroke-miterlimit:10;}
	.st1{fill:none;stroke:#FFFFFF;stroke-width:0.75;stroke-miterlimit:10;}
	.st2{fill:#DAE5EB;}
	.st3{fill:#FFFFFF;}
	.st4{fill:none;stroke:#FFFFFF;stroke-width:0.751;stroke-miterlimit:10;}
</style>
<g>
	<path class="st2" d="M40.92,16.77c0,1.07,0,2.07,0,3.08c0,1.64,0,3.28,0,4.92c0,0.58-0.19,0.79-0.74,0.79c-3.95,0-7.9,0-11.85,0
		c-0.03,0-0.07-0.01-0.18-0.04c0-0.17,0-0.35,0-0.54c0-2.15,0-4.3,0-6.45c0-0.89-0.14-1.03-1.05-1.03c-1.5,0-3,0-4.5,0
		c-0.87,0-1,0.13-1,1.02c0,2.13,0,4.27,0,6.4c0,0.19,0,0.38,0,0.63c-0.69,0-1.34,0.03-1.98-0.01c-0.44-0.03-0.55-0.36-0.55-0.76
		c0.01-1.83,0-3.67,0-5.5c0-0.83,0-1.65,0-2.52c1.27,0.35,2.42,0.21,3.51-0.45c0.09-0.05,0.27-0.03,0.37,0.02
		c1.46,0.83,2.91,0.83,4.37,0.01c0.13-0.07,0.37-0.06,0.51,0.02c1.43,0.79,2.85,0.79,4.28,0.01c0.15-0.08,0.44-0.07,0.6,0.02
		c1.4,0.75,2.79,0.75,4.19,0c0.16-0.08,0.42-0.13,0.55-0.06C38.54,16.95,39.65,17.11,40.92,16.77z M34.21,23.03c0.9,0,1.8,0,2.7,0
		c0.65,0,0.83-0.18,0.83-0.8c0.01-1.32,0.01-2.64,0-3.97c0-0.57-0.2-0.76-0.76-0.77c-1.8-0.01-3.6-0.01-5.39,0
		c-0.57,0-0.78,0.19-0.79,0.75c-0.01,1.34-0.01,2.68,0,4.02c0,0.57,0.2,0.76,0.77,0.76C32.44,23.04,33.32,23.03,34.21,23.03z"/>
	<path class="st2" d="M37.26,14.48c-1.31,1.58-3.38,1.71-4.86,0c-0.62,0.75-1.39,1.22-2.39,1.23c-1,0-1.79-0.44-2.43-1.25
		c-0.64,0.77-1.41,1.25-2.42,1.25c-0.98,0-1.76-0.44-2.4-1.21c-0.66,0.77-1.45,1.23-2.48,1.21c-1.41-0.03-2.61-1.08-2.8-2.48
		c-0.05-0.35-0.05-0.7-0.05-1.05c0-0.78,0.16-0.94,0.92-0.94c3.23,0,6.45,0,9.68,0c4.51,0,9.03,0,13.54,0c0.88,0,1.02,0.13,1,1.01
		c-0.01,0.49-0.02,1-0.16,1.46c-0.65,2.08-3.32,2.68-4.84,1.12C37.47,14.72,37.37,14.6,37.26,14.48z"/>
	<path class="st2" d="M41.69,9.98c-7.83,0-15.55,0-23.37,0c0.13-0.25,0.23-0.46,0.33-0.67c0.41-0.82,0.83-1.63,1.22-2.46
		c0.19-0.39,0.45-0.58,0.9-0.58c6.15,0.01,12.3,0,18.45,0.02c0.26,0,0.65,0.14,0.75,0.33C40.57,7.7,41.1,8.81,41.69,9.98z"/>
	<path class="st2" d="M12.03,53.71c-1.62,0-3.24,0-4.87,0c-0.69,0-0.89-0.2-0.87-0.88c0.08-2.8,2.45-5.3,5.21-5.48
		c3.09-0.21,5.74,1.79,6.22,4.69c0.05,0.28,0.09,0.56,0.09,0.84c0.02,0.61-0.19,0.82-0.81,0.82C15.35,53.71,13.69,53.71,12.03,53.71
		z"/>
	<path class="st2" d="M47.89,53.71c-1.6,0-3.21,0-4.81,0c-0.75,0-0.93-0.19-0.9-0.95c0.11-2.77,2.49-5.23,5.23-5.41
		c3.07-0.19,5.72,1.8,6.2,4.66c0.29,1.72,0.03,1.73-1.43,1.7C50.74,53.69,49.31,53.71,47.89,53.71z"/>
	<path class="st2" d="M29.97,53.71c-1.6,0-3.21,0-4.81,0c-0.77,0-0.95-0.19-0.9-0.94c0.19-3.1,2.7-5.46,5.78-5.44
		c3.09,0.02,5.57,2.4,5.72,5.51c0.03,0.65-0.16,0.87-0.81,0.87C33.28,53.71,31.62,53.71,29.97,53.71z"/>
	<path class="st2" d="M14.74,43.43c0.08,1.4-0.37,2.48-1.67,3.04c-1.63,0.7-3.45-0.39-3.66-2.2c-0.07-0.57-0.06-1.17,0.03-1.73
		c0.21-1.37,1.41-2.33,2.75-2.25c1.38,0.08,2.46,1.16,2.55,2.56C14.75,43.05,14.74,43.26,14.74,43.43z"/>
	<path class="st2" d="M50.77,43.51c-0.19,0.64-0.29,1.34-0.6,1.92c-0.53,0.98-1.71,1.42-2.83,1.18c-1.07-0.23-1.92-1.14-2.06-2.28
		c-0.07-0.57-0.07-1.17,0.01-1.74c0.19-1.4,1.4-2.38,2.76-2.31c1.37,0.06,2.45,1.15,2.56,2.55c0.02,0.21,0,0.42,0,0.63
		C50.67,43.48,50.72,43.49,50.77,43.51z"/>
	<path class="st2" d="M27.3,43.47c0.03-0.39,0.02-0.78,0.11-1.15c0.31-1.29,1.55-2.16,2.84-2.03c1.35,0.14,2.36,1.21,2.41,2.58
		c0.02,0.41,0.02,0.81,0,1.22c-0.06,1.47-1.22,2.59-2.68,2.58c-1.46-0.01-2.6-1.13-2.65-2.61c-0.01-0.19,0-0.39,0-0.58
		C27.32,43.47,27.31,43.47,27.3,43.47z"/>
	<path class="st2" d="M48.53,38.2c0.02,0.6-0.4,0.91-0.82,0.74c-0.14-0.06-0.27-0.16-0.4-0.26c-4.87-3.61-9.75-7.22-14.62-10.83
		c-0.08-0.06-0.17-0.12-0.25-0.19c-0.27-0.25-0.33-0.55-0.11-0.85c0.23-0.3,0.55-0.33,0.84-0.12c0.49,0.34,0.97,0.71,1.45,1.06
		c4.48,3.32,8.95,6.63,13.42,9.95C48.27,37.87,48.43,38.09,48.53,38.2z"/>
	<path class="st2" d="M27.79,27.35c-0.11,0.12-0.28,0.36-0.51,0.52c-2.74,2.04-5.49,4.08-8.24,6.12c-2.1,1.55-4.19,3.11-6.29,4.66
		c-0.13,0.09-0.25,0.19-0.39,0.27c-0.31,0.17-0.64,0.11-0.77-0.19c-0.09-0.21-0.03-0.53,0.06-0.76c0.06-0.15,0.29-0.25,0.44-0.36
		c4.82-3.57,9.63-7.14,14.45-10.71c0.13-0.09,0.25-0.2,0.39-0.26C27.36,26.45,27.79,26.74,27.79,27.35z"/>
	<path class="st2" d="M29.37,32.75c0-1.75,0-3.49,0-5.24c0-0.16-0.04-0.36,0.04-0.46c0.15-0.19,0.37-0.43,0.57-0.43
		c0.2-0.01,0.44,0.22,0.58,0.4c0.09,0.11,0.06,0.34,0.06,0.51c0,3.49,0,6.99,0,10.48c0,0.14,0.05,0.33-0.02,0.41
		c-0.17,0.21-0.36,0.49-0.6,0.55c-0.36,0.08-0.57-0.2-0.62-0.56c-0.02-0.14-0.01-0.28-0.01-0.42C29.37,36.24,29.37,34.5,29.37,32.75
		z"/>
</g>
</svg>
