<?xml version="1.0" encoding="utf-8"?>
<!-- Generator: Adobe Illustrator 28.3.0, SVG Export Plug-In . SVG Version: 6.00 Build 0)  -->
<svg version="1.1" id="Layer_1" xmlns="http://www.w3.org/2000/svg" xmlns:xlink="http://www.w3.org/1999/xlink" x="0px" y="0px"
	 viewBox="0 0 60 60" style="enable-background:new 0 0 60 60;" xml:space="preserve">
<style type="text/css">
	.st0{fill:none;stroke:#FFFFFF;stroke-width:0.2;stroke-miterlimit:10;}
	.st1{fill:#FFFFFF;}
</style>
<g>
	<path class="st0" d="M15.79,49.07c-6.02-1.23-9.16-4.43-9.16-9.27c-0.01-4.92,3.08-8.1,9.23-9.41c0-2.49,0-5,0-7.52
		c0-4.11,0-8.21,0-12.32c0-2.71,1.74-4.51,4.51-4.55c3.75-0.05,7.5-0.02,11.26-0.02c5.61,0,11.22,0.01,16.82,0.01
		c3.13,0,4.9,1.78,4.9,4.93c0,9.76-0.02,19.51,0.02,29.27c0.01,1.69-0.51,3.08-1.67,4.27c-2.49,2.54-4.99,5.07-7.45,7.63
		c-1.31,1.36-2.83,1.97-4.75,1.94c-6.32-0.07-12.64-0.03-18.95-0.03C17.63,53.99,16.01,52.33,15.79,49.07z M18.07,30.7
		c0.22,0.11,0.39,0.21,0.57,0.28c4.01,1.46,6.43,4.7,6.48,8.69c0.05,3.87-2.36,7.31-6.25,8.74c-0.81,0.3-0.89,0.76-0.8,1.43
		c0.16,1.09,0.98,1.86,2.11,1.87c6.83,0.02,13.67,0.01,20.5,0.01c0.93,0,1.32-0.44,1.28-1.41c-0.06-1.58-0.06-3.16,0-4.74
		c0.07-1.9,1.39-3.14,3.28-3.16c1.34-0.02,2.69,0,4.03-0.01c1.59-0.01,1.8-0.21,1.81-1.86c0.01-2.21,0-4.42,0-6.64
		c0-7.66,0-15.33,0-22.99c0-1.84-0.69-2.63-2.41-2.63c-9.44-0.02-18.88-0.02-28.32-0.01c-1.4,0-2.26,0.81-2.27,2.18
		C18.06,17.21,18.07,23.96,18.07,30.7z M14.02,39.69c-0.61-0.57-1.11-1.05-1.46-1.38c-0.88,0.79-1.69,1.51-2.35,2.11
		c1.29,1.35,2.54,2.64,3.85,4.01c2.6-2.49,5.21-5,7.95-7.63c-0.9-0.75-1.74-1.46-2.62-2.2C17.71,36.17,15.89,37.9,14.02,39.69z"/>
	<path class="st0" d="M47.38,28.99c0,0.62,0,1.16,0,1.76c-6.7,0-13.36,0-20.07,0c0-0.59,0-1.13,0-1.76
		C33.97,28.99,40.62,28.99,47.38,28.99z"/>
	<path class="st0" d="M47.39,32.52c0,0.59,0,1.09,0,1.69c-6.68,0-13.33,0-20.06,0c0-0.54,0-1.07,0-1.69
		C33.97,32.52,40.62,32.52,47.39,32.52z"/>
	<path class="st0" d="M47.37,36.35c0,0.63,0,1.17,0,1.77c-6.68,0-13.31,0-20.03,0c0-0.55,0-1.12,0-1.77
		C33.97,36.35,40.63,36.35,47.37,36.35z"/>
	<path class="st0" d="M23.92,22.37c1.28-1.24,2.48-2.44,3.72-3.59c0.2-0.19,0.55-0.33,0.83-0.33c1.65-0.03,3.31-0.02,5.1-0.02
		c-0.25,2.27-1.37,3.84-3.29,4.75C28.1,24.2,25.99,23.93,23.92,22.37z"/>
	<path class="st0" d="M23.2,21.67c-1.57-2.09-1.87-4.15-0.89-6.3c0.89-1.96,2.45-3.11,4.78-3.41c0,1.88,0.01,3.68-0.01,5.48
		c0,0.17-0.14,0.36-0.27,0.5C25.64,19.16,24.46,20.37,23.2,21.67z"/>
	<path class="st0" d="M45.59,11.87c0.61,0,1.15,0,1.77,0c0,3.84,0,7.65,0,11.55c-0.56,0-1.12,0-1.77,0
		C45.59,19.63,45.59,15.82,45.59,11.87z"/>
	<path class="st0" d="M33.51,17.22c-1.73,0-3.38,0-5.12,0c0-1.73,0-3.43,0-5.13C31,12.08,33.29,14.33,33.51,17.22z"/>
	<path class="st0" d="M43.1,16.43c0,2.31,0,4.61,0,7c-0.58,0-1.14,0-1.77,0c0-2.32,0-4.62,0-7C41.9,16.43,42.46,16.43,43.1,16.43z"
		/>
	<path class="st0" d="M38.82,23.47c-0.6,0-1.14,0-1.75,0c0-0.92,0-1.8,0-2.77c0.55,0,1.11,0,1.75,0
		C38.82,21.57,38.82,22.45,38.82,23.47z"/>
</g>
</svg>
