<?xml version="1.0" encoding="utf-8"?>
<!-- Generator: Adobe Illustrator 28.3.0, SVG Export Plug-In . SVG Version: 6.00 Build 0)  -->
<svg version="1.1" id="Layer_1" xmlns="http://www.w3.org/2000/svg" xmlns:xlink="http://www.w3.org/1999/xlink" x="0px" y="0px"
	 viewBox="0 0 60 60" style="enable-background:new 0 0 60 60;" xml:space="preserve">
<style type="text/css">
	.st0{fill:none;stroke:#FFFFFF;stroke-miterlimit:10;}
	.st1{fill:none;stroke:#FFFFFF;stroke-width:0.75;stroke-miterlimit:10;}
	.st2{fill:#DAE5EB;}
	.st3{fill:#FFFFFF;}
	.st4{fill:none;stroke:#FFFFFF;stroke-width:0.751;stroke-miterlimit:10;}
</style>
<g>
	<path class="st2" d="M8.21,54c0-16.02,0-32.05,0-48.19c0.4,0,0.74,0,1.07,0c8.04,0,16.07,0.01,24.11-0.01
		c0.65,0,1.1,0.19,1.55,0.65c3.44,3.48,6.91,6.94,10.39,10.38c0.48,0.48,0.71,0.94,0.7,1.63c-0.03,4.52-0.02,9.03-0.02,13.55
		c0,0.34,0,0.67,0,1.06c-0.57,0-1.03,0-1.61,0c0-4.77,0-9.55,0-14.4c-3.78,0-7.44,0-11.23,0c0-3.75,0-7.43,0-11.17
		c-7.8,0-15.48,0-23.24,0c0,14.92,0,29.85,0,44.9c7.2,0,14.37,0,21.64,0c0,0.61,0,1.11,0,1.61C23.78,54,15.99,54,8.21,54z
		 M42.92,17.03c-2.73-2.73-5.44-5.44-8.1-8.1c0,2.61,0,5.34,0,8.1C37.58,17.03,40.26,17.03,42.92,17.03z"/>
	<path class="st2" d="M50.63,32.7c0.22,0.04,0.46,0.02,0.64,0.12c1.69,0.96,3.11,2.21,3.88,4.02c0.38,0.87-0.07,1.68-0.69,2.3
		c-3.98,4.01-7.98,8-11.99,11.98c-0.23,0.23-0.58,0.36-0.9,0.45c-1.45,0.42-2.91,0.77-4.35,1.21c-0.61,0.19-1.16,0.57-1.77,0.77
		c-0.31,0.1-0.8,0.12-0.99-0.06c-0.19-0.18-0.21-0.69-0.11-0.99c0.26-0.79,0.79-1.51,0.92-2.31c0.5-3.18,2.08-5.6,4.46-7.75
		c3.07-2.77,5.88-5.84,8.84-8.73c0.53-0.51,1.26-0.81,1.91-1.21C50.54,32.57,50.58,32.64,50.63,32.7z M46.71,38.06
		c-2.75,2.74-5.45,5.43-8.09,8.07c1.04,1.06,2.14,2.17,3.16,3.21c2.67-2.67,5.39-5.39,8.1-8.1C48.85,40.21,47.77,39.12,46.71,38.06z
		 M51.26,40.18c0.72-0.75,1.41-1.46,2.09-2.19c0.42-0.44,0.39-0.89-0.03-1.32c-0.68-0.69-1.37-1.37-2.06-2.05
		c-0.39-0.39-0.82-0.47-1.25-0.08c-0.77,0.71-1.52,1.44-2.25,2.14C48.96,37.88,50.04,38.96,51.26,40.18z M36.7,51.25
		c1.25-0.35,2.31-0.64,3.37-0.94c-0.84-0.85-1.61-1.64-2.43-2.47C37.34,48.91,37.05,49.98,36.7,51.25z"/>
	<path class="st2" d="M27.04,29.9c3.17,0,6.34,0,9.51,0c0.28,0,0.62-0.06,0.83,0.08c0.25,0.17,0.51,0.49,0.53,0.77
		c0.01,0.21-0.29,0.53-0.53,0.66c-0.22,0.13-0.55,0.1-0.83,0.1c-6.27,0-12.55,0-18.82,0c-0.09,0-0.19,0-0.28,0
		c-0.56-0.02-1.14-0.07-1.13-0.81c0.01-0.73,0.56-0.8,1.14-0.8C20.64,29.91,23.84,29.9,27.04,29.9z"/>
	<path class="st2" d="M27.19,23.49c3.17,0,6.34,0,9.5,0c0.6,0,1.23,0.02,1.23,0.8c-0.01,0.77-0.66,0.79-1.24,0.79
		c-6.4,0-12.8,0-19.2-0.01c-0.34,0-0.74-0.13-1.01-0.34c-0.15-0.11-0.2-0.64-0.09-0.74c0.27-0.24,0.67-0.46,1.02-0.47
		c3.07-0.04,6.15-0.02,9.22-0.02C26.81,23.49,27,23.49,27.19,23.49z"/>
	<path class="st2" d="M23.9,37.95c-2.04,0-4.07,0-6.11,0c-0.28,0-0.62,0.07-0.83-0.06c-0.28-0.17-0.62-0.51-0.62-0.77
		c0.01-0.26,0.38-0.56,0.66-0.75c0.15-0.11,0.43-0.04,0.64-0.04c4.17,0,8.33,0,12.5,0c0.13,0,0.29-0.05,0.37,0.01
		c0.35,0.24,0.67,0.52,1,0.78c-0.32,0.28-0.6,0.63-0.96,0.82c-0.25,0.13-0.61,0.03-0.93,0.03C27.72,37.95,25.81,37.95,23.9,37.95z"
		/>
	<path class="st2" d="M22.67,44.38c-1.69,0-3.38,0-5.07,0c-0.61,0-1.3,0.01-1.29-0.84c0.01-0.78,0.65-0.8,1.24-0.8
		c3.44,0,6.88,0,10.33,0c0.6,0,1.22,0.08,1.2,0.84c-0.02,0.75-0.65,0.8-1.25,0.8C26.11,44.38,24.39,44.38,22.67,44.38z"/>
	<path class="st2" d="M21.1,17.07c1.25,0,2.51,0,3.76,0c0.57,0,1.09,0.21,0.98,0.82c-0.06,0.3-0.62,0.72-0.96,0.73
		c-2.54,0.06-5.08,0.06-7.61,0c-0.33-0.01-0.85-0.44-0.92-0.75c-0.13-0.57,0.37-0.78,0.9-0.79C18.53,17.07,19.81,17.07,21.1,17.07z"
		/>
</g>
</svg>
