<?xml version="1.0" encoding="utf-8"?>
<!-- Generator: Adobe Illustrator 28.3.0, SVG Export Plug-In . SVG Version: 6.00 Build 0)  -->
<svg version="1.1" id="Layer_1" xmlns="http://www.w3.org/2000/svg" xmlns:xlink="http://www.w3.org/1999/xlink" x="0px" y="0px"
	 viewBox="0 0 60 60" style="enable-background:new 0 0 60 60;" xml:space="preserve">
<style type="text/css">
	.st0{fill:none;stroke:#FFFFFF;stroke-width:0.2;stroke-miterlimit:10;}
	.st1{fill:#FFFFFF;}
</style>
<g>
	<path class="st0" d="M39.57,52.18c-1.5-0.07-2.79-1.37-2.79-2.89c0-1.55,1.26-2.87,2.79-2.93v-1.85c-0.3,0.01-0.61,0.05-0.92,0.12
		c-1.52,0.32-2.66,1.19-3.36,2.6c-0.08,0.16-0.16,0.2-0.32,0.2c-2.18-0.01-4.35-0.01-6.53,0c-0.53,0-1.04-0.1-1.51-0.35
		c-1.14-0.6-1.78-1.53-1.79-2.83c0-0.54-0.01-1.09-0.01-1.63h0v-7.35c0-1.47,0-2.94,0-4.42v-0.24c0.03-0.01,0.04-0.01,0.04-0.01
		c0.06,0.03,0.13,0.06,0.19,0.09c0.93,0.47,1.92,0.69,2.97,0.68c2.22-0.01,4.44,0,6.66-0.01c0.15,0,0.22,0.04,0.3,0.18
		c0.42,0.77,0.98,1.41,1.71,1.91c0.79,0.54,1.65,0.81,2.56,0.83v-1.85c-1.33-0.06-2.5-1.05-2.75-2.45c-0.1-0.56,0.08-1.07,0.3-1.55
		c0.39-0.84,0.98-1.48,1.91-1.73c0.17-0.05,0.36-0.06,0.54-0.09v-1.84c-0.16,0.01-0.32,0.02-0.48,0.04
		c-1.73,0.22-3.01,1.12-3.8,2.69c-0.06,0.12-0.12,0.17-0.25,0.17c-2.19,0-4.38,0-6.57-0.01c-0.1,0-0.22-0.03-0.3-0.08
		c-0.56-0.36-1.14-0.69-1.65-1.12c-0.92-0.77-1.52-1.73-1.34-3.03c0.07-0.02,0.15-0.04,0.23-0.06c1.85-0.44,3.42-1.36,4.63-2.83
		c1.77-2.16,2.32-4.64,1.84-7.37c-0.27-1.55-0.92-2.94-1.92-4.16c-0.79-0.95-1.75-1.7-2.87-2.22c-1.74-0.81-3.57-1.02-5.46-0.66
		c-1.52,0.29-2.86,0.97-4.01,1.99c-0.92,0.81-1.64,1.78-2.16,2.9c-0.81,1.74-1.09,3.56-0.75,5.45c0.3,1.64,1.05,3.07,2.18,4.29
		c1.15,1.25,2.52,2.14,4.15,2.63c0.05,0.02,0.1,0.05,0.14,0.07v0.27c0,3.26,0,6.51,0,9.77h-0.01v10.22h0.01
		c0,0.43,0.03,0.87,0.08,1.3c0.2,1.59,0.89,2.95,2.02,4.06c1.41,1.39,3.13,2.06,5.11,2.07c2.2,0.01,4.41,0,6.61,0
		c0.12,0,0.22-0.01,0.29,0.13c0.33,0.64,0.77,1.19,1.33,1.65c0.9,0.74,1.89,1.12,2.96,1.13V52.18z M24.34,17.85
		c-0.01,0.65,0,1.29-0.03,1.94c-0.02,0.49-0.29,0.72-0.78,0.73c-0.22,0-0.45,0-0.67,0c-0.56,0-0.91-0.35-0.91-0.92
		c0-1.02,0-2.04,0-3.06v-0.27h-3.33c-0.68,0-1.15-0.46-1.17-1.14c-0.01-0.22,0-0.43,0-0.65c0-0.4,0.32-0.88,0.87-0.87
		c1.03,0.02,2.06,0.01,3.09,0.01h0.26c0.01-0.09,0.01-0.18,0.01-0.26c0-1.02,0-2.03,0-3.05c0-0.75,0.46-1.21,1.21-1.21
		c0.18,0,0.37,0.01,0.55,0.01c0.7,0,1.16,0.46,1.16,1.16c0,1.02,0,2.04,0,3.07v0.28h0.28c1.05,0,2.1,0,3.15,0.01
		c0.55,0.01,0.8,0.27,0.81,0.82c0,0.23,0,0.46,0,0.69c-0.01,0.64-0.5,1.12-1.14,1.13c-1.04,0-2.07,0-3.11,0h-0.25
		C24.34,16.82,24.35,17.34,24.34,17.85z"/>
	<g>
		<g>
			<path class="st0" d="M39.86,31.29c0.02-1.03,0.24-1.95,1.13-2.58c0.52-0.37,1.18-0.34,1.69,0.05c0.64,0.49,0.91,1.18,1.02,1.95
				c0.03,0.19,0.02,0.38,0.04,0.58C42.43,31.29,41.17,31.29,39.86,31.29z"/>
			<path class="st0" d="M41.81,26.24c0.54,0,0.99,0.45,0.98,0.99c-0.01,0.51-0.46,0.95-0.98,0.95c-0.53,0-0.97-0.44-0.97-0.97
				C40.84,26.67,41.27,26.24,41.81,26.24z"/>
			<path class="st0" d="M45.46,31.3c-0.41,0-0.78,0-1.18,0c0-0.64-0.09-1.25-0.39-1.84c0.32-0.12,0.6-0.04,0.85,0.15
				c0.4,0.29,0.59,0.72,0.67,1.19C45.43,30.95,45.44,31.11,45.46,31.3z"/>
		</g>
		<path class="st0" d="M43.52,28.56c0-0.36,0.29-0.64,0.66-0.64c0.35,0.01,0.64,0.31,0.64,0.66c0,0.34-0.3,0.64-0.64,0.64
			C43.81,29.22,43.52,28.93,43.52,28.56z"/>
	</g>
	<g>
		<g>
			<path class="st0" d="M39.53,51.4c0.02-1.03,0.24-1.95,1.13-2.58c0.52-0.37,1.18-0.34,1.69,0.05c0.64,0.49,0.91,1.18,1.02,1.95
				c0.03,0.19,0.02,0.38,0.04,0.58C42.1,51.4,40.84,51.4,39.53,51.4z"/>
			<path class="st0" d="M41.48,46.36c0.54,0,0.99,0.45,0.98,0.99c-0.01,0.51-0.46,0.95-0.98,0.95c-0.53,0-0.97-0.44-0.97-0.97
				C40.51,46.78,40.94,46.36,41.48,46.36z"/>
			<path class="st0" d="M45.13,51.41c-0.41,0-0.78,0-1.18,0c0-0.64-0.09-1.25-0.39-1.84c0.32-0.12,0.6-0.04,0.85,0.15
				c0.4,0.29,0.59,0.72,0.67,1.19C45.1,51.07,45.11,51.23,45.13,51.41z"/>
		</g>
		<path class="st0" d="M43.2,48.67c0-0.36,0.29-0.64,0.66-0.64c0.35,0.01,0.64,0.31,0.64,0.66c0,0.34-0.3,0.64-0.64,0.64
			C43.48,49.34,43.19,49.04,43.2,48.67z"/>
	</g>
</g>
</svg>
