<?xml version="1.0" encoding="utf-8"?>
<!-- Generator: Adobe Illustrator 28.3.0, SVG Export Plug-In . SVG Version: 6.00 Build 0)  -->
<svg version="1.1" id="Layer_1" xmlns="http://www.w3.org/2000/svg" xmlns:xlink="http://www.w3.org/1999/xlink" x="0px" y="0px"
	 viewBox="0 0 60 60" style="enable-background:new 0 0 60 60;" xml:space="preserve">
<style type="text/css">
	.st0{fill:none;stroke:#FFFFFF;stroke-miterlimit:10;}
	.st1{fill:none;stroke:#FFFFFF;stroke-width:0.75;stroke-miterlimit:10;}
	.st2{fill:#DAE5EB;}
	.st3{fill:#FFFFFF;}
	.st4{fill:none;stroke:#FFFFFF;stroke-width:0.751;stroke-miterlimit:10;}
</style>
<g>
	<path class="st2" d="M38.53,6c0.97,0.23,1.97,0.38,2.89,0.72c4.73,1.73,7.6,6.38,7.18,11.19c-0.46,5.28-4.17,9.29-9.22,10.14
		c-7.02,1.18-13.35-4.49-12.93-11.6c0.31-5.37,4.44-9.73,9.8-10.37c0.11-0.01,0.21-0.05,0.31-0.08C37.22,6,37.88,6,38.53,6z
		 M35.23,16.45c-0.11,0.05-0.22,0.1-0.33,0.16c-2.2,1.12-3.4,2.91-3.57,5.38c-0.05,0.73,0.25,1.05,0.98,1.05
		c3.48,0.01,6.96,0.01,10.44,0c0.76,0,1.06-0.32,1-1.07c-0.19-2.44-1.37-4.23-3.55-5.34c-0.12-0.06-0.23-0.12-0.36-0.18
		c1.71-1.85,1.07-3.96,0.02-4.94c-1.26-1.17-3.24-1.23-4.53-0.1C33.87,12.68,33.82,14.47,35.23,16.45z"/>
	<path class="st2" d="M13.66,38.93c0.78-1.51,1.86-2.73,3.23-3.67c2.95-2,6.11-2.68,9.55-1.41c0.2,0.07,0.43,0.08,0.64,0.09
		c3.53,0.01,7.06,0,10.59,0.01c1.43,0,2.39,1.11,2.18,2.49c-0.16,1.02-1.02,1.74-2.12,1.75c-2.12,0.01-4.25,0-6.37,0
		c-0.72,0-1.44-0.01-2.16,0c-0.59,0.01-0.97,0.32-0.97,0.79c0,0.48,0.37,0.78,0.97,0.78c2.84,0,5.69,0.01,8.53,0
		c2.71-0.01,4.44-2.64,3.42-5.16c-0.04-0.1-0.07-0.2-0.12-0.32c0.81-0.47,1.61-0.92,2.4-1.38c2.19-1.26,4.38-2.53,6.56-3.79
		c0.9-0.52,2-0.43,2.81,0.2c0.57,0.45,0.76,1.05,0.54,1.75c-0.25,0.79-0.8,1.36-1.37,1.92c-2.88,2.84-5.83,5.61-8.61,8.55
		c-1.59,1.67-3.32,2.41-5.63,2.31c-3.49-0.14-7-0.03-10.49-0.04c-1.79-0.01-3.28,0.64-4.5,1.94c-0.31,0.33-0.67,0.61-1.06,0.96
		C19.05,44.14,16.36,41.54,13.66,38.93z"/>
	<path class="st2" d="M21.44,48.64c-1.76,1.82-3.46,3.58-5.18,5.36c-3.24-3.13-6.46-6.25-9.7-9.39c1.74-1.79,3.45-3.56,5.18-5.36
		C14.98,42.4,18.21,45.51,21.44,48.64z M16.22,51.75c0.44,0.01,0.81-0.36,0.81-0.79c0-0.41-0.36-0.77-0.77-0.78
		c-0.42-0.01-0.78,0.33-0.79,0.75C15.44,51.37,15.78,51.74,16.22,51.75z"/>
	<path class="st2" d="M42.06,21.44c-3.01,0-6.02,0-9.03,0c-0.04-1.88,2.19-3.8,4.44-3.84C39.77,17.56,42.04,19.45,42.06,21.44z"/>
	<path class="st2" d="M39.35,13.93c-0.01,0.98-0.82,1.79-1.79,1.8c-0.99,0.01-1.83-0.84-1.81-1.83c0.02-0.98,0.84-1.78,1.82-1.77
		C38.53,12.13,39.36,12.97,39.35,13.93z"/>
</g>
</svg>
