<?xml version="1.0" encoding="utf-8"?>
<!-- Generator: Adobe Illustrator 28.3.0, SVG Export Plug-In . SVG Version: 6.00 Build 0)  -->
<svg version="1.1" id="Layer_1" xmlns="http://www.w3.org/2000/svg" xmlns:xlink="http://www.w3.org/1999/xlink" x="0px" y="0px"
	 viewBox="0 0 60 60" style="enable-background:new 0 0 60 60;" xml:space="preserve">
<style type="text/css">
	.st0{fill:none;stroke:#FFFFFF;stroke-width:0.2;stroke-miterlimit:10;}
	.st1{fill:#FFFFFF;}
</style>
<g>
	<path class="st0" d="M57.49,8.31c0,11.95,0,23.91,0,35.86c-0.6,1.72-1.84,2.28-3.61,2.27c-16.07-0.03-32.14-0.02-48.21-0.02
		c-2,0-3.16-1.17-3.16-3.17c0-11.35,0-22.69,0-34.04c0-0.27,0-0.54,0.05-0.8c0.29-1.47,1.44-2.34,3.08-2.34c16.23,0,32.46,0,48.69,0
		c0.11,0,0.22,0,0.32,0c1.28,0.08,2.18,0.7,2.67,1.91C57.37,8.1,57.43,8.2,57.49,8.31z M55.2,37.27c0-0.23,0-0.42,0-0.61
		c0-9.09,0-18.18,0-27.27c0-0.89-0.11-1-0.98-1c-16.16,0-32.32,0-48.48,0c-0.83,0-0.96,0.13-0.96,0.97c0,9.11,0,18.22,0,27.33
		c0,0.19,0,0.38,0,0.59C21.61,37.27,38.35,37.27,55.2,37.27z M30.02,43.79c1.05-0.01,1.91-0.87,1.91-1.92
		c0-1.07-0.88-1.94-1.95-1.93c-1.07,0.01-1.93,0.9-1.91,1.97C28.09,42.96,28.97,43.8,30.02,43.79z"/>
	<path class="st0" d="M23.29,49.94c0-0.83,0-1.56,0-2.32c4.49,0,8.93,0,13.43,0c0,0.76,0,1.5,0,2.32c0.93,0,1.8-0.01,2.67,0
		c1.28,0.01,2.27,0.57,2.94,1.66c0.7,1.13,0.06,2.32-1.27,2.32c-7.39,0.01-14.77,0.01-22.16,0c-1.28,0-1.91-1.14-1.27-2.25
		c0.65-1.13,1.65-1.7,2.95-1.72C21.46,49.93,22.34,49.94,23.29,49.94z"/>
	<path class="st0" d="M38.18,26.12c0,2.29,0,4.58,0,6.87c0,1.05-0.38,1.43-1.41,1.44c-0.68,0-1.36,0.01-2.04,0
		c-0.77-0.02-1.21-0.44-1.21-1.21c-0.01-4.72-0.01-9.45,0-14.17c0-0.76,0.44-1.18,1.22-1.19c0.72-0.01,1.43-0.01,2.15,0
		c0.87,0.01,1.29,0.42,1.29,1.29C38.19,21.47,38.18,23.79,38.18,26.12z"/>
	<path class="st0" d="M12.41,11.54c0,1.95,0,3.87,0,5.78c0,1.49,0.64,2.13,2.11,2.13c1.75,0,3.51,0,5.26,0c0.18,0,0.35,0,0.53,0
		c-0.2,2.4-3.24,4.74-6.14,4.76c-3.35,0.02-6.2-2.58-6.49-5.93C7.41,15.23,9.63,12.03,12.41,11.54z"/>
	<path class="st0" d="M52.33,27.37c0,1.9,0,3.79,0,5.69c0,0.96-0.41,1.36-1.38,1.37c-0.64,0.01-1.29,0.01-1.93,0
		c-0.98-0.01-1.39-0.42-1.39-1.42c0-3.13,0-6.26,0-9.39c0-0.68-0.01-1.36,0-2.04c0.01-0.87,0.46-1.32,1.33-1.33
		c0.68-0.01,1.36-0.01,2.04,0c0.88,0.01,1.32,0.46,1.33,1.33C52.34,23.5,52.33,25.43,52.33,27.37z"/>
	<path class="st0" d="M45.25,29.09c0,1.34,0,2.68,0,4.02c0,0.87-0.41,1.29-1.27,1.31c-0.71,0.01-1.43,0.01-2.14,0
		c-0.8-0.01-1.26-0.42-1.27-1.21c-0.02-2.75-0.02-5.51,0-8.26c0.01-0.78,0.47-1.19,1.27-1.2c0.71-0.01,1.43-0.01,2.14,0
		c0.83,0.01,1.26,0.44,1.27,1.26C45.26,26.38,45.25,27.73,45.25,29.09z"/>
	<path class="st0" d="M31.11,29.09c0,1.32,0.01,2.65,0,3.97c-0.01,0.97-0.4,1.36-1.38,1.37c-0.7,0.01-1.4,0.01-2.09-0.01
		c-0.76-0.02-1.19-0.45-1.19-1.22c-0.01-2.74-0.01-5.48,0-8.21c0-0.79,0.44-1.22,1.24-1.23c0.72-0.01,1.43-0.01,2.15,0
		c0.84,0.01,1.26,0.42,1.27,1.25C31.12,26.37,31.11,27.73,31.11,29.09z"/>
	<path class="st0" d="M17.09,18.3c-0.91,0-1.82,0-2.74,0c-0.58,0-0.77-0.19-0.78-0.77c-0.01-1.84-0.01-3.69,0-5.53
		c0-0.57,0.22-0.76,0.8-0.74c3.36,0.12,6.07,2.8,6.25,6.18c0.03,0.63-0.17,0.85-0.79,0.86C18.92,18.3,18.01,18.3,17.09,18.3z"/>
	<path class="st0" d="M35.79,12.66c-1.97,1.9-3.9,3.76-5.83,5.62c-0.24,0.24-0.48,0.48-0.73,0.71c-0.27,0.25-0.59,0.31-0.86,0.02
		c-0.27-0.29-0.2-0.59,0.07-0.85c2.32-2.24,4.63-4.48,6.95-6.71c0.38-0.36,0.66-0.29,1.07,0.19c2.07,2.46,4.14,4.93,6.21,7.39
		c0.1,0.12,0.21,0.24,0.34,0.39c0.17-0.11,0.33-0.21,0.49-0.32c1.96-1.38,3.91-2.76,5.87-4.14c0.12-0.08,0.24-0.23,0.36-0.22
		c0.24,0.01,0.58,0.02,0.68,0.17c0.11,0.15,0.02,0.48-0.05,0.71c-0.03,0.11-0.21,0.18-0.33,0.26c-2.16,1.53-4.32,3.06-6.48,4.58
		c-0.65,0.46-0.81,0.44-1.34-0.18c-2.04-2.42-4.07-4.85-6.11-7.27C36.03,12.92,35.93,12.82,35.79,12.66z"/>
	<path class="st0" d="M14.11,29.91c1.86,0,3.72,0,5.58,0c0.18,0,0.4-0.04,0.52,0.05c0.18,0.13,0.38,0.36,0.39,0.55
		c0.01,0.16-0.22,0.38-0.39,0.5c-0.11,0.08-0.31,0.05-0.47,0.05c-3.72,0-7.43,0-11.15,0c-0.07,0-0.14,0-0.21,0
		c-0.39,0-0.69-0.16-0.69-0.58c0-0.42,0.3-0.58,0.69-0.58c1.57,0,3.15,0,4.72,0C13.43,29.91,13.77,29.91,14.11,29.91z"/>
	<path class="st0" d="M14.14,27.67c-1.82,0-3.65,0-5.47,0c-0.18,0-0.39,0.05-0.53-0.03c-0.19-0.12-0.45-0.34-0.43-0.5
		c0.02-0.2,0.26-0.41,0.44-0.56c0.09-0.07,0.28-0.02,0.42-0.02c3.72,0,7.44,0,11.16,0c0.13,0,0.29-0.05,0.37,0.02
		c0.19,0.15,0.5,0.36,0.49,0.52c-0.02,0.21-0.29,0.42-0.49,0.57c-0.11,0.08-0.31,0.02-0.47,0.02
		C17.79,27.67,15.97,27.67,14.14,27.67z"/>
	<path class="st0" d="M14.19,34.43c-1.84,0-3.69,0-5.53,0c-0.18,0-0.4,0.05-0.53-0.03c-0.19-0.12-0.44-0.35-0.43-0.51
		c0.02-0.2,0.26-0.41,0.45-0.55c0.11-0.08,0.31-0.03,0.47-0.03c3.69,0,7.37,0,11.06,0c0.16,0,0.36-0.05,0.47,0.03
		c0.19,0.13,0.45,0.35,0.43,0.51c-0.02,0.2-0.25,0.42-0.45,0.55c-0.13,0.08-0.35,0.03-0.53,0.03C17.8,34.43,16,34.43,14.19,34.43z"
		/>
	<path class="st0" d="M30.01,42.65c-0.42,0.01-0.78-0.35-0.78-0.78c0-0.43,0.36-0.79,0.78-0.79c0.4,0.01,0.74,0.35,0.76,0.76
		C30.78,42.27,30.44,42.64,30.01,42.65z"/>
</g>
</svg>
