<?xml version="1.0" encoding="utf-8"?>
<!-- Generator: Adobe Illustrator 28.3.0, SVG Export Plug-In . SVG Version: 6.00 Build 0)  -->
<svg version="1.1" id="Layer_1" xmlns="http://www.w3.org/2000/svg" xmlns:xlink="http://www.w3.org/1999/xlink" x="0px" y="0px"
	 viewBox="0 0 60 60" style="enable-background:new 0 0 60 60;" xml:space="preserve">
<style type="text/css">
	.st0{fill:none;stroke:#FFFFFF;stroke-width:0.2;stroke-miterlimit:10;}
	.st1{fill:#FFFFFF;}
</style>
<g>
	<path class="st0" d="M30.35,20.6c-1.55,0-3.11,0-4.66,0c-0.59,0-0.81-0.23-0.81-0.81c0-2.38,0-4.75,0-7.13
		c0-0.29-0.02-0.57-0.34-0.69c-0.31-0.12-0.5,0.09-0.69,0.28c-0.33,0.33-0.67,0.66-1,1.01c-0.22,0.23-0.43,0.23-0.65,0.01
		c-0.67-0.67-1.33-1.34-2.01-2.01c-0.24-0.24-0.23-0.44,0.01-0.68c1.33-1.32,2.64-2.65,3.97-3.95c0.2-0.19,0.49-0.35,0.76-0.38
		c0.55-0.06,1.11-0.05,1.67-0.03c0.34,0.02,0.49,0.29,0.61,0.59c0.48,1.2,1.35,1.94,2.63,2.15c1.55,0.25,3.03-0.61,3.62-2.07
		c0.25-0.61,0.36-0.68,0.99-0.68c1.84,0,1.56-0.09,2.82,1.16c1.05,1.05,2.09,2.09,3.14,3.14c0.38,0.38,0.38,0.46,0.02,0.83
		c-0.62,0.63-1.25,1.25-1.88,1.88c-0.32,0.31-0.43,0.31-0.75,0c-0.3-0.3-0.6-0.6-0.9-0.9c-0.2-0.2-0.39-0.47-0.74-0.33
		c-0.36,0.14-0.34,0.46-0.34,0.76c0,2.3,0,4.61,0,6.91c0,0.79-0.17,0.96-0.96,0.96C33.36,20.6,31.86,20.6,30.35,20.6z"/>
	<path class="st0" d="M46.68,44.29c0.35-0.08,0.62-0.14,0.88-0.2c0.49-0.1,0.88,0.13,0.98,0.57c0.1,0.43-0.14,0.81-0.6,0.93
		c-1.28,0.32-2.56,0.64-3.85,0.94c-0.6,0.14-1.1-0.35-0.92-0.94c0.37-1.27,0.78-2.52,1.19-3.78c0.13-0.4,0.57-0.58,0.95-0.46
		c0.4,0.13,0.62,0.53,0.51,0.96c-0.06,0.22-0.13,0.44-0.13,0.7c0.07-0.08,0.15-0.16,0.22-0.25c3.41-4.1,5.1-8.81,4.87-14.14
		c-0.24-5.52-2.43-10.2-6.4-14.04c-0.19-0.19-0.38-0.47-0.4-0.72c-0.02-0.21,0.16-0.54,0.34-0.65c0.2-0.12,0.52-0.06,0.78-0.03
		c0.11,0.01,0.21,0.15,0.31,0.24c4.05,3.89,6.4,8.62,6.86,14.21c0.51,6.17-1.36,11.6-5.34,16.32C46.86,44.05,46.8,44.13,46.68,44.29
		z"/>
	<path class="st0" d="M13.65,15.15c-0.31,0.1-0.53,0.17-0.75,0.23c-0.45,0.13-0.85-0.08-0.99-0.5c-0.14-0.41,0.07-0.83,0.52-0.98
		c1.27-0.41,2.54-0.81,3.81-1.2c0.63-0.19,1.19,0.34,0.98,0.96c-0.44,1.3-0.92,2.58-1.41,3.86c-0.15,0.39-0.6,0.54-0.98,0.39
		c-0.38-0.15-0.57-0.54-0.46-0.95c0.02-0.09,0.05-0.18,0.07-0.27c-0.03-0.02-0.06-0.03-0.08-0.05c-0.54,0.8-1.11,1.59-1.6,2.42
		c-2.23,3.8-3.22,7.91-2.79,12.31c0.49,5.1,2.62,9.43,6.32,12.99c0.15,0.14,0.31,0.27,0.45,0.42c0.28,0.31,0.29,0.76,0.02,1.06
		c-0.27,0.29-0.74,0.35-1.05,0.08c-0.46-0.4-0.9-0.82-1.31-1.26c-4.31-4.65-6.36-10.14-6.02-16.47c0.25-4.69,1.94-8.87,4.86-12.55
		C13.36,15.51,13.48,15.37,13.65,15.15z"/>
	<path class="st0" d="M28.13,38.68c-0.08-0.72-0.46-1.18-1.14-1.44c0.16-0.59,0.12-1.15-0.31-1.63c-0.42-0.47-0.96-0.62-1.6-0.5
		c-0.04-0.1-0.07-0.2-0.11-0.3c-0.28-0.8-1.08-1.23-1.89-1.01c-0.2,0.05-0.45,0.17-0.53-0.08c-0.05-0.14,0.04-0.39,0.15-0.53
		c0.43-0.54,0.9-1.05,1.37-1.58c0.08,0.06,0.14,0.1,0.21,0.15c0.58,0.46,1.3,0.47,1.92,0.06c0.58-0.38,1.15-0.78,1.77-1.07
		c1.16-0.55,2.27-0.5,3.31,0.39c1.7,1.44,3.45,2.83,5.18,4.24c0.07,0.05,0.13,0.11,0.2,0.16c0.34,0.3,0.39,0.69,0.14,0.99
		c-0.24,0.29-0.64,0.31-0.98,0.05c-0.55-0.44-1.09-0.89-1.64-1.33c-0.71-0.58-1.43-1.16-2.14-1.75c-0.24-0.2-0.48-0.24-0.71,0
		c-0.2,0.21-0.14,0.48,0.14,0.72c0.08,0.07,0.17,0.14,0.25,0.21c0.91,0.74,1.83,1.48,2.74,2.23c0.12,0.1,0.25,0.2,0.35,0.32
		c0.23,0.28,0.21,0.76-0.04,1c-0.24,0.24-0.62,0.26-0.92,0.02c-0.76-0.62-1.52-1.25-2.27-1.88c-0.35-0.3-0.7-0.6-1.05-0.89
		c-0.29-0.24-0.55-0.25-0.73-0.03c-0.18,0.22-0.14,0.48,0.14,0.72c0.91,0.78,1.83,1.56,2.74,2.34c0.3,0.26,0.37,0.58,0.2,0.87
		c-0.17,0.29-0.43,0.4-0.74,0.32c-0.14-0.04-0.28-0.14-0.4-0.24c-0.9-0.76-1.79-1.52-2.69-2.29c-0.05-0.04-0.09-0.08-0.14-0.12
		c-0.26-0.21-0.54-0.2-0.7,0.02c-0.19,0.25-0.12,0.48,0.11,0.67c0.75,0.65,1.51,1.29,2.25,1.96c0.15,0.14,0.29,0.37,0.31,0.58
		c0.05,0.43-0.38,0.77-0.8,0.64c-0.13-0.04-0.28-0.2-0.31-0.33C29.56,39.52,28.94,38.87,28.13,38.68z"/>
	<path class="st0" d="M21.16,21.62c0.2,0.11,0.37,0.17,0.51,0.29c0.57,0.49,1.14,0.98,1.7,1.48c0.37,0.33,0.39,0.64,0.07,1.01
		c-1.57,1.8-3.14,3.6-4.72,5.4c-0.32,0.36-0.65,0.38-1.01,0.06c-0.57-0.49-1.14-0.98-1.7-1.48c-0.36-0.32-0.39-0.64-0.07-1.01
		c1.57-1.8,3.14-3.6,4.72-5.39C20.79,21.83,20.98,21.75,21.16,21.62z"/>
	<path class="st0" d="M39.55,21.63c0.17,0.11,0.36,0.19,0.48,0.32c1.59,1.81,3.18,3.63,4.77,5.45c0.29,0.33,0.26,0.66-0.07,0.96
		c-0.58,0.52-1.16,1.03-1.75,1.53c-0.33,0.28-0.67,0.26-0.96-0.07c-1.59-1.81-3.18-3.63-4.76-5.45c-0.29-0.33-0.26-0.66,0.07-0.96
		c0.58-0.52,1.16-1.03,1.75-1.53C39.2,21.78,39.36,21.73,39.55,21.63z"/>
	<path class="st0" d="M29.75,29.46c-0.95,0.01-1.74,0.16-2.46,0.59c-0.55,0.33-1.09,0.68-1.63,1.02c-0.34,0.21-0.66,0.17-0.88-0.09
		c-0.22-0.26-0.2-0.64,0.06-0.89c1.65-1.53,3.59-2.4,5.84-2.41c1.64-0.01,3.04,0.63,4.15,1.86c0.82,0.91,1.61,1.84,2.42,2.76
		c0.37,0.42,0.5,1.58,0.24,2.07c-0.17,0.31-0.37,0.34-0.67,0.1c-1.8-1.46-3.6-2.91-5.38-4.39C30.9,29.63,30.32,29.42,29.75,29.46z"
		/>
	<path class="st0" d="M36.07,24.66c0.18,0.12,0.37,0.2,0.5,0.35c1.59,1.8,3.16,3.61,4.74,5.42c0.3,0.35,0.27,0.67-0.08,0.98
		c-0.49,0.44-0.98,0.87-1.48,1.29c-0.36,0.31-0.69,0.28-1.01-0.08c-1.56-1.79-3.13-3.58-4.69-5.37c-0.33-0.38-0.31-0.71,0.06-1.04
		c0.48-0.43,0.96-0.85,1.46-1.26C35.7,24.84,35.87,24.77,36.07,24.66z"/>
	<path class="st0" d="M26.92,26.68c-0.06,0.18-0.07,0.32-0.14,0.4c-0.38,0.43-0.76,0.88-1.19,1.27c-0.4,0.37-0.86,0.66-1.29,1
		c-0.35,0.28-0.54,0.64-0.59,1.09c-0.02,0.13-0.08,0.28-0.17,0.38c-0.52,0.61-1.05,1.21-1.58,1.81c-0.33,0.37-0.65,0.39-1.04,0.06
		c-0.48-0.41-0.95-0.82-1.42-1.24c-0.39-0.34-0.41-0.65-0.08-1.04c1.56-1.79,3.12-3.58,4.69-5.37c0.35-0.4,0.66-0.41,1.06-0.06
		c0.48,0.41,0.96,0.82,1.42,1.25C26.73,26.34,26.82,26.53,26.92,26.68z"/>
	<path class="st0" d="M25.58,35.94c0.16,0.14,0.39,0.26,0.51,0.45c0.15,0.24,0.1,0.54-0.12,0.73c-0.7,0.6-1.41,1.18-2.13,1.75
		c-0.28,0.22-0.66,0.15-0.88-0.12c-0.22-0.26-0.23-0.66,0.04-0.89c0.7-0.6,1.41-1.18,2.13-1.76C25.21,36.04,25.36,36.02,25.58,35.94
		z"/>
	<path class="st0" d="M27.31,38.75c-0.16,0.23-0.25,0.44-0.4,0.57c-0.37,0.33-0.77,0.62-1.16,0.92c-0.34,0.25-0.74,0.22-0.97-0.08
		c-0.24-0.3-0.19-0.69,0.13-0.96c0.4-0.33,0.8-0.68,1.23-0.95c0.18-0.11,0.5-0.13,0.7-0.05C27.03,38.27,27.14,38.54,27.31,38.75z"/>
	<path class="st0" d="M23.53,34.59c0.18,0.15,0.45,0.27,0.53,0.47c0.07,0.2,0.03,0.54-0.1,0.69c-0.35,0.39-0.77,0.73-1.19,1.06
		c-0.24,0.19-0.61,0.14-0.83-0.08c-0.22-0.22-0.29-0.62-0.08-0.83c0.43-0.42,0.91-0.79,1.38-1.17c0.06-0.05,0.16-0.05,0.24-0.07
		C23.49,34.63,23.51,34.61,23.53,34.59z"/>
	<path class="st0" d="M27.19,41.79c-0.18-0.16-0.44-0.28-0.51-0.48c-0.07-0.2-0.03-0.54,0.1-0.69c0.33-0.35,0.73-0.64,1.12-0.91
		c0.1-0.07,0.35-0.03,0.45,0.05c0.17,0.14,0.31,0.34,0.42,0.54c0.05,0.08,0.04,0.27-0.02,0.32c-0.38,0.35-0.78,0.69-1.18,1.02
		c-0.08,0.06-0.2,0.06-0.31,0.09C27.24,41.75,27.21,41.77,27.19,41.79z"/>
	<path class="st0" d="M30.39,43.44c-2.92,0-5.28,2.36-5.28,5.28S27.48,54,30.39,54s5.28-2.36,5.28-5.28S33.31,43.44,30.39,43.44z
		 M32.25,47.36h-0.9c-0.08,0.85-0.76,1.39-1.82,1.42c0.65,0.67,1.35,1.52,2.05,2.38h-0.8c-0.65-0.78-1.26-1.5-2.04-2.34v-0.52h0.46
		c0.9,0,1.38-0.37,1.44-0.95h-1.9v-0.42h1.87c-0.12-0.48-0.56-0.72-1.28-0.72h-0.59v-0.54h3.49v0.42h-1.36
		c0.24,0.19,0.41,0.47,0.47,0.85h0.91V47.36z"/>
</g>
</svg>
