<svg xmlns="http://www.w3.org/2000/svg" width="90" height="90" viewBox="0 0 90 90">
    <g data-name="Group 2295" transform="translate(-451 -916.311)">
        <circle data-name="Ellipse 137" cx="45" cy="45" r="45" transform="translate(451 916.311)" style="fill:#f8f8f8"/>
        <path data-name="Path 3041" d="M180.944 56.157h-39.782a1.172 1.172 0 0 1-1.17-1.17V1.164a1.172 1.172 0 0 1 1.17-1.17h39.782a1.174 1.174 0 0 1 1.17 1.17v53.823a1.174 1.174 0 0 1-1.17 1.17zm-38.612-2.34h37.441V2.335h-37.44z" transform="translate(334.947 933.236)" style="fill:#383838"/>
        <path data-name="Path 3042" d="M246.243 189h-23.4a1.17 1.17 0 1 1 0-2.34h23.4a1.17 1.17 0 1 1 0 2.34z" transform="translate(261.459 765.287)" style="fill:#383838"/>
        <path data-name="Path 3043" d="M246.243 235.674h-23.4a1.17 1.17 0 0 1 0-2.34h23.4a1.17 1.17 0 1 1 0 2.34z" transform="translate(261.459 723.298)" style="fill:#383838"/>
        <path data-name="Path 3044" d="M246.243 282.334h-23.4a1.17 1.17 0 1 1 0-2.34h23.4a1.17 1.17 0 1 1 0 2.34z" transform="translate(261.459 681.317)" style="fill:#383838"/>
        <path data-name="Path 3045" d="M259.008 74.686h-2.34v-2.34l2.34-2.34z" transform="translate(229.972 870.245)" style="fill:#383838"/>
        <path data-name="Path 3046" d="M212.338 74.686H210v-2.34l2.34-2.34z" transform="translate(271.962 870.245)" style="fill:#383838"/>
        <path data-name="Path 3047" d="M420 396.67h2.34v2.34l-2.34 2.34z" transform="translate(83.021 576.342)" style="fill:#383838"/>
        <path data-name="Path 3048" d="M466.67 396.67h2.34v2.34l-2.34 2.34z" transform="translate(41.031 576.342)" style="fill:#383838"/>
    </g>
</svg>
