<svg xmlns="http://www.w3.org/2000/svg" width="10" height="11.667" viewBox="0 0 10 11.667"><path d="M11.889,2H4.111A1.111,1.111,0,0,0,3,3.111v7.778A1.111,1.111,0,0,0,4.111,12H6.333L8,13.667,9.667,12h2.222A1.114,1.114,0,0,0,13,10.889V3.111A1.114,1.114,0,0,0,11.889,2ZM8.556,10.889H7.444V9.778H8.556Zm1.15-4.306-.5.511a1.891,1.891,0,0,0-.65,1.572H7.444V8.389a2.236,2.236,0,0,1,.65-1.572l.689-.7a1.086,1.086,0,0,0,.328-.783,1.111,1.111,0,1,0-2.222,0H5.778a2.222,2.222,0,1,1,4.444,0A1.768,1.768,0,0,1,9.706,6.583Z" transform="translate(-3 -2)" fill="#fff"/></svg>