<svg xmlns="http://www.w3.org/2000/svg" width="23.175" height="20.269" viewBox="0 0 23.175 20.269"><g transform="translate(-32.49 -59.305)"><path d="M40.109,72.6c.067.32.127.623.2.924a.134.134,0,0,0,.087.072.584.584,0,0,0,.149,0H52.387a.831.831,0,1,1,.123,1.657c-.055,0-.111,0-.166,0H40.1a1.27,1.27,0,0,1-1.357-1.1q-1.077-5.1-2.157-10.206c-.2-.936-.4-1.871-.588-2.808-.027-.133-.071-.177-.212-.176-.8.008-1.606,0-2.409,0a.831.831,0,1,1,.008-1.658q1.429,0,2.858,0a1.248,1.248,0,0,1,1.274,1.019c.109.491.214.983.308,1.477.025.131.072.166.2.165q3.082-.007,6.164,0H54.525a1.056,1.056,0,0,1,1.1.763,1.439,1.439,0,0,1,.015.635q-.85,4.092-1.721,8.179a1.266,1.266,0,0,1-1.3,1.053H40.109ZM38.228,63.63c.007.056.009.105.019.153q.739,3.5,1.476,6.993c.028.133.077.164.2.164q6.131-.005,12.262,0h.158L53.89,63.63Z" fill="#121212"/><path d="M226.8,262.811a1.66,1.66,0,1,1,1.658,1.658A1.662,1.662,0,0,1,226.8,262.811Z" transform="translate(-177.999 -184.896)" fill="#121212"/><path d="M125.156,262.861a1.658,1.658,0,1,1-1.549-1.712A1.662,1.662,0,0,1,125.156,262.861Z" transform="translate(-81.852 -184.893)" fill="#121212"/></g></svg>