<svg xmlns="http://www.w3.org/2000/svg" width="90" height="90" viewBox="0 0 90 90">
    <g data-name="Group 2295" transform="translate(-451 -916.311)">
        <circle data-name="Ellipse 137" cx="45" cy="45" r="45" transform="translate(451 916.311)" style="fill:#f8f8f8"/>
        <path data-name="Path 3049" d="m212.973 159.857 25.223 12.5a2.413 2.413 0 0 0 2.144 0l25.221-12.5a2.414 2.414 0 0 0 0-4.325l-25.221-12.5a2.414 2.414 0 0 0-2.144 0l-25.223 12.5a2.414 2.414 0 0 0 0 4.325zm26.293-11.969 19.785 9.807-19.785 9.805-19.785-9.805z" transform="translate(256.734 789.613)" style="fill:#383838;stroke:#f8f8f8;stroke-width:1.3px"/>
        <path data-name="Path 3050" d="m263.409 253.882-24.148 11.968-24.15-11.968a2.414 2.414 0 0 0-2.143 4.326l25.221 12.5a2.409 2.409 0 0 0 2.144 0l25.221-12.5a2.414 2.414 0 0 0-2.144-4.325z" transform="translate(256.739 700.901)" style="fill:#383838;stroke:#f8f8f8;stroke-width:1.3px"/>
        <path data-name="Path 3051" d="m263.409 299.875-24.148 11.968-24.15-11.968a2.414 2.414 0 0 0-2.143 4.327l25.223 12.5a2.409 2.409 0 0 0 2.144 0l25.221-12.5a2.414 2.414 0 1 0-2.145-4.325z" transform="translate(256.739 664.094)" style="fill:#383838;stroke:#f8f8f8;stroke-width:1.3px"/>
        <path data-name="Path 3052" d="m263.409 345.867-24.148 11.968-24.15-11.968a2.414 2.414 0 0 0-2.143 4.327l25.223 12.5a2.409 2.409 0 0 0 2.144 0l25.221-12.5a2.414 2.414 0 1 0-2.145-4.325z" transform="translate(256.739 627.288)" style="fill:#383838;stroke:#f8f8f8;stroke-width:1.3px"/>
    </g>
</svg>
