<svg xmlns="http://www.w3.org/2000/svg" width="17.728" height="25.42" viewBox="0 0 17.728 25.42">
  <g id="noun-ruler-2618852" transform="translate(-126.441 -23.799)">
    <path id="Path_3276" data-name="Path 3276" d="M143.757,42.184h-9.869a.412.412,0,0,1-.412-.412V24.211a.412.412,0,0,0-.412-.412h-6.211a.412.412,0,0,0-.412.412v24.6a.412.412,0,0,0,.412.412h16.9a.412.412,0,0,0,.412-.412V42.6a.412.412,0,0,0-.412-.412Zm-16.079-17.56h4.562a.412.412,0,0,1,.412.412V42.5a.4.4,0,0,0-.17.1l-5.221,5.221V25.036a.412.412,0,0,1,.418-.412Zm15.664,23.359a.412.412,0,0,1-.412.412H127.848l5.221-5.221a.4.4,0,0,0,.1-.17h9.766a.412.412,0,0,1,.412.412Z" fill="#ce0e2d"/>
    <path id="Path_3277" data-name="Path 3277" d="M151.614,84h1.649a.443.443,0,0,1,.412.412.412.412,0,0,1-.412.412h-1.649a.443.443,0,0,1-.412-.412A.412.412,0,0,1,151.614,84Z" transform="translate(-23.546 -57.246)" fill="#ce0e2d"/>
    <path id="Path_3278" data-name="Path 3278" d="M151.614,161h1.649a.443.443,0,0,1,.412.412.412.412,0,0,1-.412.412h-1.649a.443.443,0,0,1-.412-.412A.412.412,0,0,1,151.614,161Z" transform="translate(-23.546 -130.468)" fill="#ce0e2d"/>
    <path id="Path_3279" data-name="Path 3279" d="M151.614,238h1.649a.443.443,0,0,1,.412.412.412.412,0,0,1-.412.412h-1.649a.443.443,0,0,1-.412-.412A.412.412,0,0,1,151.614,238Z" transform="translate(-23.546 -203.689)" fill="#ce0e2d"/>
    <path id="Path_3280" data-name="Path 3280" d="M151.614,315h1.649a.443.443,0,0,1,.412.412.412.412,0,0,1-.412.412h-1.649a.443.443,0,0,1-.412-.412A.412.412,0,0,1,151.614,315Z" transform="translate(-23.546 -276.911)" fill="#ce0e2d"/>
    <path id="Path_3281" data-name="Path 3281" d="M151.614,392h1.649a.443.443,0,0,1,.412.412.412.412,0,0,1-.412.412h-1.649a.443.443,0,0,1-.412-.412A.412.412,0,0,1,151.614,392Z" transform="translate(-23.546 -350.132)" fill="#ce0e2d"/>
    <path id="Path_3282" data-name="Path 3282" d="M427.489,483.816l-.335.344a.412.412,0,0,0,.583.583l.335-.335a.412.412,0,0,0-.583-.583Z" transform="translate(-285.85 -437.345)" fill="#ce0e2d"/>
    <path id="Path_3283" data-name="Path 3283" d="M372.533,422.057l-3.677,3.677a.412.412,0,0,0,.583.583l3.677-3.677a.412.412,0,0,0-.583-.583Z" transform="translate(-230.414 -378.609)" fill="#ce0e2d"/>
    <path id="Path_3284" data-name="Path 3284" d="M304.063,421.865a.413.413,0,0,0-.583,0l-3.677,3.677a.412.412,0,0,0,.583.583l3.677-3.677a.412.412,0,0,0,0-.583Z" transform="translate(-164.75 -378.417)" fill="#ce0e2d"/>
  </g>
</svg>
