<svg xmlns="http://www.w3.org/2000/svg" width="90" height="90" viewBox="0 0 90 90"><g transform="translate(-451 -916.311)"><circle cx="45" cy="45" r="45" transform="translate(451 916.311)" fill="#f8f8f8"/><g transform="translate(475.631 938.741)"><path d="M266.392,220.587H285.65a10.754,10.754,0,0,0,10.741-10.742l-2.585-24.164h-5.67v-3.74a6.5,6.5,0,0,0-6.493-6.494H270.618a6.5,6.5,0,0,0-6.493,6.494v8.531a3.643,3.643,0,1,0,2.812,0V188.49h1.549a5.294,5.294,0,0,0,4.911,3.371h5.25a5.294,5.294,0,0,0,4.911-3.371h.718v-2.811h-3.028l-.163,1.22a2.474,2.474,0,0,1-2.438,2.15H273.4a2.474,2.474,0,0,1-2.438-2.15l-.164-1.22h-3.86V181.94a3.687,3.687,0,0,1,3.683-3.683h11.025a3.687,3.687,0,0,1,3.683,3.683V190.4a3.644,3.644,0,1,0,2.812.184v-2.1h3.044l2.4,21.4a7.94,7.94,0,0,1-7.93,7.885H266.392a7.94,7.94,0,0,1-7.93-7.885l2.4-21.4H263v-2.811h-4.759l-2.581,24.067,0,.1a10.753,10.753,0,0,0,10.74,10.744Zm-.864-25.921a.832.832,0,1,1,.831-.832A.832.832,0,0,1,265.528,194.665Zm20.984,0a.832.832,0,1,1,.831-.832A.832.832,0,0,1,286.512,194.665Z" transform="translate(-255.652 -175.446)" fill="#383838"/></g></g></svg>