<svg xmlns="http://www.w3.org/2000/svg" width="90" height="90" viewBox="0 0 90 90">
    <g data-name="Group 2295" transform="translate(-451 -916.311)">
        <circle data-name="Ellipse 137" cx="45" cy="45" r="45" transform="translate(451 916.311)" style="fill:#f8f8f8"/>
        <path data-name="Path 3024" d="M86.453 22.945a1.5 1.5 0 0 0 1.484 1.307 1.477 1.477 0 0 0 .834-.252l.929.935a1.691 1.691 0 0 0 2.392.008l.95-.944a1.7 1.7 0 0 0 .014-2.382l-.929-.948a1.494 1.494 0 0 0-1.036-2.33l-3.138-.41a1.685 1.685 0 0 0-1.893 1.881zm1.278-3.823a.53.53 0 0 1 .063 0l3.137.411a.282.282 0 0 1 .162.481l-.46.457a.283.283 0 0 0 0 .4l1.559 1.588a.48.48 0 0 1 0 .676l-.949.944a.48.48 0 0 1-.677 0L89 22.5a.282.282 0 0 0-.4 0l-.461.457a.28.28 0 0 1-.2.083.283.283 0 0 1-.283-.248l-.393-3.14a.475.475 0 0 1 .47-.534z" transform="translate(385.658 919.082)" style="fill:#383838"/>
        <path data-name="Path 3025" d="M532.816 24.939a1.691 1.691 0 0 0 2.392-.008l.929-.935a1.477 1.477 0 0 0 .835.256 1.5 1.5 0 0 0 1.481-1.306l.393-3.139a1.684 1.684 0 0 0-1.892-1.881l-3.137.411a1.494 1.494 0 0 0-1.035 2.33l-.931.948a1.7 1.7 0 0 0 .014 2.385zm-.1-2.478 1.558-1.588a.283.283 0 0 0 0-.4l-.461-.457a.282.282 0 0 1 .161-.481l3.136-.411a.461.461 0 0 1 .063 0 .475.475 0 0 1 .469.535l-.393 3.139a.282.282 0 0 1-.283.247.276.276 0 0 1-.2-.083l-.459-.458a.282.282 0 0 0-.4 0l-1.565 1.577a.479.479 0 0 1-.677 0l-.95-.944a.48.48 0 0 1 0-.673z" transform="translate(-18.567 919.081)" style="fill:#383838"/>
        <path data-name="Path 3026" d="m539.1 469.347-.411-3.137a1.5 1.5 0 0 0-1.483-1.3 1.476 1.476 0 0 0-.848.264l-.948-.931a1.69 1.69 0 0 0-2.382.014l-.944.949a1.69 1.69 0 0 0 .008 2.391l.934.929a1.494 1.494 0 0 0 1.053 2.318l3.139.393a1.686 1.686 0 0 0 1.881-1.892zm-1.67.694a.475.475 0 0 1-.06 0l-3.139-.393a.283.283 0 0 1-.165-.48l.458-.459a.282.282 0 0 0 0-.4l-1.577-1.565a.479.479 0 0 1 0-.678l.944-.95a.479.479 0 0 1 .675 0l1.588 1.558a.283.283 0 0 0 .4 0l.456-.461a.283.283 0 0 1 .482.163l.411 3.136a.475.475 0 0 1-.474.536z" transform="translate(-18.771 514.377)" style="fill:#383838"/>
        <path data-name="Path 3027" d="M91.611 464.249a1.689 1.689 0 0 0-2.382-.015l-.948.931a1.476 1.476 0 0 0-.848-.264 1.5 1.5 0 0 0-1.482 1.3l-.411 3.137a1.686 1.686 0 0 0 1.67 1.9 1.719 1.719 0 0 0 .211-.013l3.139-.393a1.494 1.494 0 0 0 1.053-2.318l.935-.929a1.691 1.691 0 0 0 .008-2.392zm.083 2.481-1.577 1.57a.283.283 0 0 0 0 .4l.458.459a.283.283 0 0 1-.165.48l-3.139.393a.491.491 0 0 1-.06 0 .475.475 0 0 1-.47-.537l.411-3.136a.283.283 0 0 1 .283-.246.279.279 0 0 1 .2.084l.456.461a.283.283 0 0 0 .4 0l1.588-1.558a.479.479 0 0 1 .676 0l.942.949a.479.479 0 0 1 0 .679z" transform="translate(386.13 514.387)" style="fill:#383838"/>
        <path data-name="Path 3028" d="M157.434 55.421v-22.77a2.363 2.363 0 0 0-1.265-2.1l-13.262-6.987-6.163-3.247a2.368 2.368 0 0 0-2.21 0l-19.422 10.236a2.364 2.364 0 0 0-1.265 2.1v22.768a2.364 2.364 0 0 0 1.265 2.1l19.423 10.235a2.368 2.368 0 0 0 2.21 0l19.423-10.236a2.366 2.366 0 0 0 1.265-2.1zm-9.968-28.085-19.316 9.777a2.361 2.361 0 0 0-1.3 2.116v9.133a.277.277 0 0 1-.477.192l-1.747-1.825a1.476 1.476 0 0 0-1.388-.425l-1.14.245a.277.277 0 0 1-.335-.271V36.04a1.155 1.155 0 0 1 .636-1.035l20.211-10.23zM135.1 21.389a1.159 1.159 0 0 1 1.081 0l5.112 2.695-19.441 9.841a2.378 2.378 0 0 0-.591.428l-5.489-2.778zm-.065 45.256-19.359-10.2a1.156 1.156 0 0 1-.619-1.024l.01-22.843 5.572 2.82a2.358 2.358 0 0 0-.089.646v10.235a1.488 1.488 0 0 0 1.8 1.453l1.14-.246a.275.275 0 0 1 .258.081l1.747 1.825a1.488 1.488 0 0 0 2.563-1.03V39.23c0-.025.008-.047.01-.071l6.5 3.29a2.355 2.355 0 0 0 .464.174zm.081-25.28-6.342-3.21 20.006-10.126 6.729 3.546-19.344 9.792a1.163 1.163 0 0 1-1.048 0zM155.6 56.443l-19.356 10.2V42.621a2.308 2.308 0 0 0 .466-.174l19.5-9.871.01 22.843a1.155 1.155 0 0 1-.619 1.025z" transform="translate(360.423 917.145)" style="fill:#383838"/>
    </g>
</svg>
