<svg xmlns="http://www.w3.org/2000/svg" width="110" height="110" viewBox="0 0 110 110">
    <g data-name="Group 2295" transform="translate(-451 -916.311)">
        <circle data-name="Ellipse 137" cx="45" cy="45" r="45" transform="translate(451 916.311)" style="fill:#f8f8f8"/>
        <path data-name="Path 3032" d="M124.708 172.558h-38a5.144 5.144 0 0 1-5.045-5.227v-22.9a5.293 5.293 0 0 1 2.147-4.278l4.29-3.119a1.045 1.045 0 1 1 1.229 1.689l-4.29 3.119a3.2 3.2 0 0 0-1.286 2.588v22.9a3.053 3.053 0 0 0 2.954 3.136h38a3.053 3.053 0 0 0 2.954-3.136v-22.9a3.192 3.192 0 0 0-1.286-2.586l-4.246-3.088a1.045 1.045 0 1 1 1.229-1.689l4.246 3.088a5.278 5.278 0 0 1 2.147 4.275v22.9a5.146 5.146 0 0 1-5.045 5.227z" transform="translate(390.291 811.653)" style="fill:#383838;stroke:#f8f8f8;stroke-width:.5px"/>
        <path data-name="Path 3033" d="M243.19 30.5a1.046 1.046 0 0 1-.615-1.892l2.908-2.116a10.724 10.724 0 0 1 12.65 0l2.875 2.091a1.045 1.045 0 0 1-1.229 1.689l-2.879-2.089a8.641 8.641 0 0 0-10.191 0L243.8 30.3a1.054 1.054 0 0 1-.615.2z" transform="translate(244.192 913.981)" style="fill:#383838;stroke:#f8f8f8;stroke-width:.5px"/>
        <path data-name="Path 3035" d="M186.164 86.676a1.046 1.046 0 0 1-1.046-1.046V71h-31.361v14.63a1.046 1.046 0 1 1-2.091 0V69.949a1.046 1.046 0 0 1 1.046-1.046h33.452a1.046 1.046 0 0 1 1.046 1.046V85.63a1.046 1.046 0 0 1-1.045 1.046z" transform="translate(326.562 873.492)" style="fill:#383838;stroke:#f8f8f8;stroke-width:.5px"/>
        <path data-name="Path 3036" d="M296.894 149.357c-2.812 0-5.005-1.209-5.216-2.873a1.046 1.046 0 1 1 2.076-.262c.038.3 1.185 1.043 3.14 1.043 2.131 0 3.138-.838 3.138-1.046 0-.006-.036-.657-3.052-1.029l-.222-.029c-1.531-.186-5.089-.621-5.089-3.123 0-1.788 2.247-3.136 5.229-3.136 2.812 0 5.005 1.209 5.216 2.873a1.046 1.046 0 1 1-2.076.261c-.038-.3-1.185-1.043-3.14-1.043-2.026 0-3.138.784-3.138 1.046 0 .006.036.657 3.061 1.027l.219.027c1.531.19 5.083.625 5.083 3.128 0 1.788-2.247 3.136-5.229 3.136z" transform="translate(199.104 809.765)" style="fill:#383838;stroke:#f8f8f8;stroke-width:.5px"/>
        <path data-name="Path 3037" d="M339.378 130.2a1.046 1.046 0 0 1-1.046-1.046V116.61a1.046 1.046 0 0 1 2.091 0v12.545a1.046 1.046 0 0 1-1.045 1.045z" transform="translate(156.623 831.013)" style="fill:#383838;stroke:#f8f8f8;stroke-width:.5px"/>
        <path data-name="Path 3038" d="M252.149 304.325h-17.771a1.046 1.046 0 1 1 0-2.091h17.771a1.045 1.045 0 1 1 0 2.091z" transform="translate(252.214 661.07)" style="fill:#383838;stroke:#f8f8f8;stroke-width:.5px"/>
        <path data-name="Path 3039" d="M436.891 117.655h-4.181a1.046 1.046 0 0 1 0-2.091h4.182a1.046 1.046 0 0 1 0 2.091z" transform="translate(71.654 831.013)" style="fill:#383838;stroke:#f8f8f8;stroke-width:.5px"/>
        <path data-name="Path 3040" d="M203.561 257.655h-4.181a1.046 1.046 0 0 1 0-2.091h4.182a1.046 1.046 0 1 1 0 2.091z" transform="translate(284.076 703.558)" style="fill:#383838;stroke:#f8f8f8;stroke-width:.5px"/>
        <path data-name="Path 3034" d="M148.177 244.946a10.559 10.559 0 0 1-5.869-1.783l-13.529-9.018a1.045 1.045 0 1 1 1.159-1.74l13.529 9.018a8.465 8.465 0 0 0 9.417 0l13.529-9.018a1.045 1.045 0 0 1 1.159 1.74l-13.529 9.018a10.555 10.555 0 0 1-5.865 1.783z" transform="translate(347.822 724.802)" style="fill:#383838;stroke:#f8f8f8;stroke-width:.5px"/>
    </g>
</svg>
