<svg xmlns="http://www.w3.org/2000/svg" width="90" height="90" viewBox="0 0 90 90">
    <g data-name="Group 2295" transform="translate(-451 -916.311)">
        <circle data-name="Ellipse 137" cx="45" cy="45" r="45" transform="translate(451 916.311)" style="fill:#f8f8f8"/>
        <path data-name="Path 3029" d="m189.932 138.992-3.419-7.825a7.731 7.731 0 0 0-7.065-4.634h-5.394v-2.051a2.966 2.966 0 0 0-2.963-2.963h-40.415a1.961 1.961 0 0 0-1.975 1.975v6h-2.963a1.961 1.961 0 0 0-1.975 1.975 2.011 2.011 0 0 0 1.975 1.975h4.938a1.961 1.961 0 0 0 1.975-1.975v-6h37.3v14.586a3.291 3.291 0 0 0 3.266 3.266h13.219v9.193a.681.681 0 0 1-.684.684h-2.583a7.275 7.275 0 0 0-12.611 0h-20.282a7.275 7.275 0 0 0-12.611 0h-5.014v-6a1.961 1.961 0 0 0-1.975-1.975h-4.938a1.961 1.961 0 0 0-1.975 1.975 2.011 2.011 0 0 0 1.975 1.975h2.887v6a1.961 1.961 0 0 0 1.975 1.975h6a7.3 7.3 0 0 0 14.587 0h18.461a7.3 7.3 0 0 0 14.587 0h1.6a4.734 4.734 0 0 0 4.71-4.71V141.8a8.176 8.176 0 0 0-.608-2.811zm-45.962 21.424a3.343 3.343 0 1 1 3.343-3.343 3.372 3.372 0 0 1-3.342 3.343zm32.971 0a3.343 3.343 0 1 1 3.343-3.343 3.372 3.372 0 0 1-3.343 3.343zm-2.887-29.856h5.394a3.742 3.742 0 0 1 3.419 2.2l2.887 6.761h-11.7z" transform="translate(341.507 818.483)" style="fill:#383838;stroke:#f8f8f8"/>
        <path data-name="Path 3030" d="M119.662 207.735a2.018 2.018 0 0 0 0 2.811 2.018 2.018 0 0 0 2.887 0l6-6a2.018 2.018 0 0 0 0-2.811l-6-6a1.988 1.988 0 1 0-2.811 2.811l2.507 2.507H86.539a1.961 1.961 0 0 0-1.975 1.975 2.084 2.084 0 0 0 1.9 2.127h35.706z" transform="translate(375.388 754.83)" style="fill:#383838;stroke:#f8f8f8"/>
    </g>
</svg>
