<svg xmlns="http://www.w3.org/2000/svg" xmlns:xlink="http://www.w3.org/1999/xlink" width="16.275" height="15.616" viewBox="0 0 16.275 15.616"><defs><clipPath id="a"><rect width="16.275" height="15.616" fill="#ce0e2d"/></clipPath></defs><g transform="translate(1.864 1.788)"><g transform="translate(-1.864 -1.788)" clip-path="url(#a)"><path d="M90.439,10.152v-.6q0-4.207,0-8.415A1.014,1.014,0,0,1,91.053.107a.865.865,0,0,1,1.059.156,1.72,1.72,0,0,1,.362.976c.036,1.673.016,3.346.016,5.02q0,1.673,0,3.347c0,.152,0,.3,0,.594.938-.911,1.767-1.723,2.6-2.526a.868.868,0,0,1,1.374,0,.764.764,0,0,1,.006,1.149Q94.253,11,92,13.145a.8.8,0,0,1-1.123-.02q-2.221-2.173-4.417-4.372c-.369-.371-.31-.784.093-1.169a.8.8,0,0,1,1.224-.021c.756.731,1.5,1.478,2.246,2.216.108.107.225.2.412.373" transform="translate(-83.364 -2.594)" fill="#ce0e2d"/><path d="M14.734,295.867h1.5a30.686,30.686,0,0,1-.023,3.3,2.89,2.89,0,0,1-2.929,2.5q-5.135.039-10.271,0A2.99,2.99,0,0,1,0,298.569c0-.889,0-1.777,0-2.695H1.5c.009.123.027.259.027.395,0,.812-.009,1.625,0,2.436a1.452,1.452,0,0,0,1.456,1.456q5.16.012,10.319,0a1.41,1.41,0,0,0,1.422-1.427c.013-.937,0-1.875,0-2.867" transform="translate(0 -286.069)" fill="#ce0e2d"/></g></g></svg>