<svg xmlns="http://www.w3.org/2000/svg" width="36.25" height="21.927" viewBox="0 0 36.25 21.927">
  <g id="noun-magic-carpet-24552" transform="translate(-203.725 -248.861)">
    <path id="Path_3287" data-name="Path 3287" d="M495.555,182.928a1.044,1.044,0,0,0,1.456-.25l1.121-1.585a1.044,1.044,0,1,0-1.705-1.206l-1.121,1.585a1.044,1.044,0,0,0,.25,1.456Z" transform="translate(-259.471 70)" fill="#383838" stroke="#f8f8f8" stroke-width="1"/>
    <path id="Path_3288" data-name="Path 3288" d="M175.965,363.751a1.042,1.042,0,0,0-1.455.25l-1.121,1.585a1.044,1.044,0,1,0,1.706,1.2l1.121-1.584a1.045,1.045,0,0,0-.251-1.455Z" transform="translate(32.427 -96.945)" fill="#383838" stroke="#f8f8f8" stroke-width="1"/>
    <path id="Path_3289" data-name="Path 3289" d="M500.027,353.583l-1.585-1.121a1.044,1.044,0,0,0-1.2,1.705l1.584,1.121a1.044,1.044,0,1,0,1.205-1.705Z" transform="translate(-260.996 -86.708)" fill="#383838" stroke="#f8f8f8" stroke-width="1"/>
    <path id="Path_3290" data-name="Path 3290" d="M160.856,190.588a1.044,1.044,0,0,0,.6-1.9l-1.585-1.121a1.044,1.044,0,1,0-1.2,1.705l1.585,1.121a1.038,1.038,0,0,0,.6.192Z" transform="translate(46 62.808)" fill="#383838" stroke="#f8f8f8" stroke-width="1"/>
    <path id="Path_3291" data-name="Path 3291" d="M226.834,186.29a1.039,1.039,0,0,0-.543.153,15.307,15.307,0,0,1-7.124,1.648c-1.988,0-3.43-1.148-4.956-2.363-1.611-1.283-3.437-2.736-6.01-2.736a9.689,9.689,0,0,0-7.585,3.53,1.048,1.048,0,0,0-.2.612l-.066,11.108a1.045,1.045,0,0,0,1.827.7,8.6,8.6,0,0,1,5.944-2.558c1.735,0,3,.839,4.456,1.811a10.382,10.382,0,0,0,5.987,2.264,25.413,25.413,0,0,0,8.669-1.63,1.046,1.046,0,0,0,.651-.968V187.334a1.045,1.045,0,0,0-1.045-1.044ZM202.5,187.52a7.324,7.324,0,0,1,1.358-1.148v8.875a11.068,11.068,0,0,0-1.409.778Zm11.23,8.933c-1.6-1.063-3.247-2.162-5.613-2.162a9.862,9.862,0,0,0-2.17.248V185.4a7.947,7.947,0,0,1,2.254-.321c1.843,0,3.171,1.057,4.709,2.281,1.659,1.321,3.539,2.818,6.257,2.818a18.787,18.787,0,0,0,2.968-.239v8.106a21.2,21.2,0,0,1-3.575.321c-1.953,0-3.35-.93-4.83-1.915Zm12.06.674c-.381.129-.916.3-1.567.467v-8.109c.312-.087.6-.176.858-.261s.481-.162.708-.243Z" transform="translate(7.809 66.786)" fill="#383838" stroke="#f8f8f8" stroke-width="1"/>
  </g>
</svg>
